<svg height="auto" viewBox="0 0 2000 1000" xmlns="http://www.w3.org/2000/svg"><path d="M0 674.798c10-23.095 30-27.988 50-115.476 20-87.487 30-284.14 50-321.96 20-37.82 30 157.372 50 132.863 20-24.51 30-215.862 50-255.408 20-39.545 30 27.224 50 57.681 20 30.457 30-27.762 50 94.604 20 122.367 30 548.695 50 517.227 20-31.467 30-667.495 50-674.566 20-7.07 30 611.116 50 639.215 20 28.099 30-407.262 50-498.721 20-91.46 30-10.34 50 41.425s30 171.627 50 217.399c20 45.771 30-34.23 50 11.459 20 45.688 30 193.73 50 216.983 20 23.252 30 3.633 50-100.72 20-104.354 30-330.307 50-421.048 20-90.74 30-122.848 50-32.656 20 90.192 30 387.1 50 483.617 20 96.516 30-7.801 50-1.036 20 6.766 30 75.434 50 34.864s30-188.949 50-237.715c20-48.766 30-62.91 50-6.117 20 56.794 30 259.78 50 290.086 20 30.307 30-11.563 50-138.552 20-126.988 30-451.249 50-496.39 20-45.14 30 234.208 50 270.686 20 36.479 30-94.08 50-88.292 20 5.787 30 106.177 50 117.227 20 11.049 30-124.577 50-61.981s30 416.88 50 374.961c20-41.92 30-480.677 50-584.558 20-103.88 30 70.733 50 65.154 20-5.579 30-165.603 50-93.05 20 72.554 30 391.116 50 455.817 20 64.7 30-175.868 50-132.312 20 43.557 30 313.44 50 350.094 20 36.655 30-75.156 50-166.823s30-303.87 50-291.512c20 12.357 30 317.441 50 353.296 20 35.855 40-139.217 50-174.021V1000H0Z" fill="#c41e521a"/><path d="M0 674.798c10-23.095 30-27.988 50-115.476 20-87.487 30-284.14 50-321.96 20-37.82 30 157.372 50 132.863 20-24.51 30-215.862 50-255.408 20-39.545 30 27.224 50 57.681 20 30.457 30-27.762 50 94.604 20 122.367 30 548.695 50 517.227 20-31.467 30-667.495 50-674.566 20-7.07 30 611.116 50 639.215 20 28.099 30-407.262 50-498.721 20-91.46 30-10.34 50 41.425s30 171.627 50 217.399c20 45.771 30-34.23 50 11.459 20 45.688 30 193.73 50 216.983 20 23.252 30 3.633 50-100.72 20-104.354 30-330.307 50-421.048 20-90.74 30-122.848 50-32.656 20 90.192 30 387.1 50 483.617 20 96.516 30-7.801 50-1.036 20 6.766 30 75.434 50 34.864s30-188.949 50-237.715c20-48.766 30-62.91 50-6.117 20 56.794 30 259.78 50 290.086 20 30.307 30-11.563 50-138.552 20-126.988 30-451.249 50-496.39 20-45.14 30 234.208 50 270.686 20 36.479 30-94.08 50-88.292 20 5.787 30 106.177 50 117.227 20 11.049 30-124.577 50-61.981s30 416.88 50 374.961c20-41.92 30-480.677 50-584.558 20-103.88 30 70.733 50 65.154 20-5.579 30-165.603 50-93.05 20 72.554 30 391.116 50 455.817 20 64.7 30-175.868 50-132.312 20 43.557 30 313.44 50 350.094 20 36.655 30-75.156 50-166.823s30-303.87 50-291.512c20 12.357 30 317.441 50 353.296 20 35.855 40-139.217 50-174.021" fill="none" stroke="#c41e52" stroke-width="2"/><g fill="#c41e52"><circle cy="674.798" r="6"/><circle cx="50" cy="559.322" r="6"/><circle cx="100" cy="237.362" r="6"/><circle cx="150" cy="370.225" r="6"/><circle cx="200" cy="114.817" r="6"/><circle cx="250" cy="172.498" r="6"/><circle cx="300" cy="267.102" r="6"/><circle cx="350" cy="784.329" r="6"/><circle cx="400" cy="109.763" r="6"/><circle cx="450" cy="748.978" r="6"/><circle cx="500" cy="250.257" r="6"/><circle cx="550" cy="291.682" r="6"/><circle cx="600" cy="509.081" r="6"/><circle cx="650" cy="520.54" r="6"/><circle cx="700" cy="737.523" r="6"/><circle cx="750" cy="636.802" r="6"/><circle cx="800" cy="215.755" r="6"/><circle cx="850" cy="183.099" r="6"/><circle cx="900" cy="666.716" r="6"/><circle cx="950" cy="665.68" r="6"/><circle cx="1000" cy="700.544" r="6"/><circle cx="1050" cy="462.829" r="6"/><circle cx="1100" cy="456.712" r="6"/><circle cx="1150" cy="746.798" r="6"/><circle cx="1200" cy="608.246" r="6"/><circle cx="1250" cy="111.856" r="6"/><circle cx="1300" cy="382.542" r="6"/><circle cx="1350" cy="294.25" r="6"/><circle cx="1400" cy="411.477" r="6"/><circle cx="1450" cy="349.496" r="6"/><circle cx="1500" cy="724.457" r="6"/><circle cx="1550" cy="139.899" r="6"/><circle cx="1600" cy="205.053" r="6"/><circle cx="1650" cy="112.003" r="6"/><circle cx="1700" cy="567.82" r="6"/><circle cx="1750" cy="435.508" r="6"/><circle cx="1800" cy="785.602" r="6"/><circle cx="1850" cy="618.779" r="6"/><circle cx="1900" cy="327.267" r="6"/><circle cx="1950" cy="680.563" r="6"/><circle cx="2000" cy="506.542" r="6"/></g></svg>