<svg height="auto" viewBox="0 0 2000 1000" xmlns="http://www.w3.org/2000/svg"><path d="M0 1000h48.485M60.606 1000h48.485v-16.948q0-4-4-4H64.606q-4 0-4 4ZM121.212 1000h48.485v-30.921q0-4-4-4h-40.485q-4 0-4 4ZM181.818 1000h48.485v-81.004q0-4-4-4h-40.485q-4 0-4 4ZM242.424 1000h48.485V896.532q0-4-4-4h-40.485q-4 0-4 4ZM303.03 1000h48.485V876.526q0-4-4-4H307.03q-4 0-4 4ZM363.636 1000h48.485v-99.439q0-4-4-4h-40.485q-4 0-4 4ZM424.242 1000h48.485V892.328q0-4-4-4h-40.485q-4 0-4 4ZM484.848 1000h48.485V776.88q0-4-4-4h-40.485q-4 0-4 4ZM545.455 1000h48.484V768.485q0-4-4-4h-40.484q-4 0-4 4ZM606.06 1000h48.485V765.568q0-4-4-4h-40.484q-4 0-4 4ZM666.667 1000h48.485V694.858q0-4-4-4h-40.485q-4 0-4 4ZM727.273 1000h48.485V707.924q0-4-4-4h-40.485q-4 0-4 4ZM787.879 1000h48.485V721.278q0-4-4-4h-40.485q-4 0-4 4ZM848.485 1000h48.485V682.43q0-4-4-4h-40.485q-4 0-4 4ZM909.09 1000h48.486V736.973q0-4-4-4H913.09q-4 0-4 4ZM969.697 1000h48.485V736.696q0-4-4-4h-40.485q-4 0-4 4ZM1030.303 1000h48.485V539.567q0-4-4-4h-40.485q-4 0-4 4ZM1090.91 1000h48.484V631.546q0-4-4-4h-40.485q-4 0-4 4ZM1151.515 1000H1200V664.884q0-4-4-4h-40.485q-4 0-4 4ZM1212.121 1000h48.485V514.373q0-4-4-4h-40.485q-4 0-4 4ZM1272.727 1000h48.485V616.392q0-4-4-4h-40.485q-4 0-4 4ZM1333.333 1000h48.485V646.926q0-4-4-4h-40.485q-4 0-4 4ZM1393.94 1000h48.484V402.039q0-4-4-4h-40.485q-4 0-4 4ZM1454.545 1000h48.485V493.572q0-4-4-4h-40.485q-4 0-4 4ZM1515.152 1000h48.484V246.61q0-4-4-4h-40.484q-4 0-4 4ZM1575.758 1000h48.484V427.75q0-4-4-4h-40.484q-4 0-4 4ZM1636.364 1000h48.484V533.88q0-4-4-4h-40.484q-4 0-4 4ZM1696.97 1000h48.485V332.368q0-4-4-4h-40.485q-4 0-4 4ZM1757.576 1000h48.485V544.19q0-4-4-4h-40.485q-4 0-4 4ZM1818.182 1000h48.485V133.77q0-4-4-4h-40.485q-4 0-4 4ZM1878.788 1000h48.485V402.502q0-4-4-4h-40.485q-4 0-4 4ZM1939.394 1000h48.485V121.48q0-4-4-4h-40.485q-4 0-4 4Z" fill="#444cf7"/></svg>