<svg height="auto" viewBox="0 0 2000 1000" xmlns="http://www.w3.org/2000/svg"><path d="M0 999.549c12.6-4.1 37.8-13.603 63-20.497 25.2-6.894 37.8-1.162 63-13.973 25.2-12.812 37.8-35.574 63-50.083 25.2-14.51 37.8-13.97 63-22.464 25.2-8.494 37.8-20.812 63-20.006 25.2.806 37.8 20.875 63 24.035 25.2 3.16 37.8 16.503 63-8.233 25.2-24.736 37.8-90.68 63-115.449 25.2-24.768 37.8-6.131 63-8.394 25.2-2.262 37.8 11.808 63-2.917 25.2-14.726 37.8-59.182 63-70.71 25.2-11.53 37.8 7.782 63 13.066 25.2 5.284 37.8 18.452 63 13.354 25.2-5.099 37.8-41.986 63-38.847 25.2 3.139 37.8 43.689 63 54.542 25.2 10.853 37.8 39.204 63-.277 25.2-39.481 37.8-176.1 63-197.129 25.2-21.03 37.8 66.916 63 91.98 25.2 25.063 37.8 56.772 63 33.337 25.2-23.434 37.8-140.812 63-150.51 25.2-9.7 37.8 75.507 63 102.018 25.2 26.51 37.8 73.405 63 30.534 25.2-42.87 37.8-214.216 63-244.887 25.2-30.671 37.8 122.619 63 91.533 25.2-31.085 37.8-233.797 63-246.961 25.2-13.164 37.8 123.686 63 181.14 25.2 57.453 37.8 125.205 63 106.128 25.2-19.076 37.8-203.573 63-201.51 25.2 2.061 37.8 251.54 63 211.82 25.2-39.719 37.8-382.082 63-410.42 25.2-28.337 37.8 271.191 63 268.733 25.2-2.457 50.4-224.817 63-281.022L2000 1000H0Z" fill="#444cf71a"/><path d="M0 999.549c12.6-4.1 37.8-13.603 63-20.497 25.2-6.894 37.8-1.162 63-13.973 25.2-12.812 37.8-35.574 63-50.083 25.2-14.51 37.8-13.97 63-22.464 25.2-8.494 37.8-20.812 63-20.006 25.2.806 37.8 20.875 63 24.035 25.2 3.16 37.8 16.503 63-8.233 25.2-24.736 37.8-90.68 63-115.449 25.2-24.768 37.8-6.131 63-8.394 25.2-2.262 37.8 11.808 63-2.917 25.2-14.726 37.8-59.182 63-70.71 25.2-11.53 37.8 7.782 63 13.066 25.2 5.284 37.8 18.452 63 13.354 25.2-5.099 37.8-41.986 63-38.847 25.2 3.139 37.8 43.689 63 54.542 25.2 10.853 37.8 39.204 63-.277 25.2-39.481 37.8-176.1 63-197.129 25.2-21.03 37.8 66.916 63 91.98 25.2 25.063 37.8 56.772 63 33.337 25.2-23.434 37.8-140.812 63-150.51 25.2-9.7 37.8 75.507 63 102.018 25.2 26.51 37.8 73.405 63 30.534 25.2-42.87 37.8-214.216 63-244.887 25.2-30.671 37.8 122.619 63 91.533 25.2-31.085 37.8-233.797 63-246.961 25.2-13.164 37.8 123.686 63 181.14 25.2 57.453 37.8 125.205 63 106.128 25.2-19.076 37.8-203.573 63-201.51 25.2 2.061 37.8 251.54 63 211.82 25.2-39.719 37.8-382.082 63-410.42 25.2-28.337 37.8 271.191 63 268.733 25.2-2.457 50.4-224.817 63-281.022" fill="none" stroke="#444cf7" stroke-width="4"/><g fill="#444cf7"><circle cy="999.549" r="8"/><circle cx="63" cy="979.052" r="8"/><circle cx="126" cy="965.079" r="8"/><circle cx="189" cy="914.996" r="8"/><circle cx="252" cy="892.532" r="8"/><circle cx="315" cy="872.526" r="8"/><circle cx="378" cy="896.561" r="8"/><circle cx="441" cy="888.328" r="8"/><circle cx="504" cy="772.879" r="8"/><circle cx="567" cy="764.485" r="8"/><circle cx="630" cy="761.568" r="8"/><circle cx="693" cy="690.858" r="8"/><circle cx="756" cy="703.924" r="8"/><circle cx="819" cy="717.278" r="8"/><circle cx="882" cy="678.431" r="8"/><circle cx="945" cy="732.973" r="8"/><circle cx="1008" cy="732.696" r="8"/><circle cx="1071" cy="535.567" r="8"/><circle cx="1134" cy="627.546" r="8"/><circle cx="1197" cy="660.884" r="8"/><circle cx="1260" cy="510.373" r="8"/><circle cx="1323" cy="612.392" r="8"/><circle cx="1386" cy="642.926" r="8"/><circle cx="1449" cy="398.039" r="8"/><circle cx="1512" cy="489.572" r="8"/><circle cx="1575" cy="242.611" r="8"/><circle cx="1638" cy="423.75" r="8"/><circle cx="1701" cy="529.879" r="8"/><circle cx="1764" cy="328.368" r="8"/><circle cx="1827" cy="540.19" r="8"/><circle cx="1890" cy="129.769" r="8"/><circle cx="1953" cy="398.502" r="8"/><circle cx="2016" cy="117.48" r="8"/></g></svg>