<svg width="28" height="28" viewBox="0 0 28 28" fill="none" xmlns="http://www.w3.org/2000/svg">
<g id="Avalanche (AVAX)">
<circle id="Avalanche (AVAX)_2" cx="14" cy="14" r="14" fill="#E84142"/>
<path id="Avalanche (AVAX)_3" fill-rule="evenodd" clip-rule="evenodd" d="M14.8377 4.1559C14.3526 3.31811 13.581 3.31811 13.0959 4.1559L4.28807 19.6661C3.80303 20.515 4.19988 21.1874 5.16996 21.1874H9.59043C10.4833 21.1323 11.2881 20.6583 11.7731 19.9087L17.0975 10.6819C17.4833 9.88819 17.4833 8.95118 17.0975 8.15748L15.5101 5.3685L14.8377 4.1559ZM20.6914 14.3638C20.2064 13.526 19.4237 13.526 18.9386 14.3638L15.8631 19.6661C15.389 20.5039 15.7859 21.1874 16.7449 21.1874H22.83C23.8001 21.1874 24.1969 20.5039 23.7119 19.6661L20.6914 14.3638Z" fill="white"/>
</g>
</svg>
