<svg width="29" height="28" viewBox="0 0 29 28" fill="none" xmlns="http://www.w3.org/2000/svg">
<g id="Binance Coin (BNB)">
<path id="Binance Coin (BNB)_2" d="M27.6444 17.3867C25.7746 24.8867 18.1782 29.4511 10.6773 27.5809C3.17946 25.7111 -1.38494 18.1142 0.485686 10.6148C2.35467 3.11387 9.95102 -1.45087 17.4497 0.418928C24.9501 2.28873 29.5142 9.88639 27.6442 17.3868L27.6443 17.3867H27.6444Z" fill="#F3BA2F"/>
<path id="Binance Coin (BNB)_3" fill-rule="evenodd" clip-rule="evenodd" d="M14.0672 8.88535L10.442 12.5106L10.4421 12.5104L8.33283 10.4011L14.0672 4.66669L19.8035 10.4028L17.6942 12.5121L14.0672 8.88535ZM6.84281 11.8903L4.7334 14L6.84266 16.109L8.95206 13.9996L6.84281 11.8903ZM10.441 15.4897L14.0662 19.1147L17.693 15.488L19.8035 17.5962L19.8024 17.5973L14.0662 23.3334L8.33178 17.599L8.32879 17.596L10.441 15.4897ZM21.2902 11.8915L19.1808 14.0009L21.2902 16.1101L23.3995 14.0007L21.2902 11.8915Z" fill="white"/>
<path id="Binance Coin (BNB)_4" d="M16.2062 13.9988H16.2071L14.0668 11.8584L12.4848 13.4399L12.3031 13.6218L11.9283 13.9967L11.9253 13.9996L11.9283 14.0026L14.0668 16.1415L16.2072 14.0011L16.2082 13.9999L16.2063 13.9988" fill="white"/>
</g>
</svg>
