<svg width="80" height="20" viewBox="0 0 80 20" fill="none" xmlns="http://www.w3.org/2000/svg">
<g id="Icon_feature_3">
<path id="Union" fill-rule="evenodd" clip-rule="evenodd" d="M20 10C20 15.5228 15.5228 20 10 20C4.47715 20 0 15.5228 0 10C0 4.47715 4.47715 0 10 0C15.5228 0 20 4.47715 20 10ZM50 10C50 15.5228 45.5228 20 40 20C34.4772 20 30 15.5228 30 10C30 4.47715 34.4772 0 40 0C45.5228 0 50 4.47715 50 10ZM70 20C75.5229 20 80 15.5228 80 10C80 4.47715 75.5229 0 70 0C64.4771 0 60 4.47715 60 10C60 15.5228 64.4771 20 70 20Z" fill="url(#paint0_linear_6288_9293)"/>
</g>
<defs>
<linearGradient id="paint0_linear_6288_9293" x1="20.8333" y1="-3.10441e-09" x2="23.4087" y2="23.5464" gradientUnits="userSpaceOnUse">
<stop stop-color="#68C0FF"/>
<stop offset="1" stop-color="#207ACC"/>
</linearGradient>
</defs>
</svg>
