<svg width="80" height="20" viewBox="0 0 80 20" fill="none" xmlns="http://www.w3.org/2000/svg">
<g id="Icon_feature_2">
<path id="Union" opacity="0.2" d="M80 10C80 15.5228 75.5228 20 70 20C64.4772 20 60 15.5228 60 10C60 4.47715 64.4772 0 70 0C75.5228 0 80 4.47715 80 10Z" fill="url(#paint0_linear_6288_9301)"/>
<path id="Union_2" fill-rule="evenodd" clip-rule="evenodd" d="M10 20C15.5228 20 20 15.5228 20 10C20 4.47715 15.5228 0 10 0C4.47715 0 0 4.47715 0 10C0 15.5228 4.47715 20 10 20ZM40 20C45.5228 20 50 15.5228 50 10C50 4.47715 45.5228 0 40 0C34.4772 0 30 4.47715 30 10C30 15.5228 34.4772 20 40 20Z" fill="url(#paint1_linear_6288_9301)"/>
</g>
<defs>
<linearGradient id="paint0_linear_6288_9301" x1="65.2083" y1="-3.10441e-09" x2="73.9583" y2="20" gradientUnits="userSpaceOnUse">
<stop stop-color="#68C0FF"/>
<stop offset="1" stop-color="#207ACC"/>
</linearGradient>
<linearGradient id="paint1_linear_6288_9301" x1="13.0208" y1="-3.10441e-09" x2="17.0668" y2="23.1201" gradientUnits="userSpaceOnUse">
<stop stop-color="#68C0FF"/>
<stop offset="1" stop-color="#207ACC"/>
</linearGradient>
</defs>
</svg>
