<svg width="16" height="16" viewBox="0 0 16 16" fill="none" xmlns="http://www.w3.org/2000/svg">
<g id="Icon_wing">
<path id="Rectangle 281" d="M0 3.0963C0 2.12265 0.789304 1.33334 1.76296 1.33334L9.33333 1.33334C13.0152 1.33334 16 4.34405 16 8.02595C16 11.6793 13.0384 14.6667 9.38501 14.6667H5.63124C4.7817 14.6667 4.09302 13.978 4.09302 13.1285C4.09302 12.2825 4.77617 11.5953 5.62213 11.5903L9.66909 11.5663C10.1661 11.5634 10.5674 11.1596 10.5674 10.6626C10.5674 10.1635 10.1628 9.75892 9.66374 9.75892H3.01767C2.16828 9.75892 1.47971 9.07035 1.47971 8.22096C1.47971 7.37493 2.16305 6.68776 3.00907 6.68302L7.45347 6.65817C7.94106 6.65544 8.33488 6.2594 8.33488 5.77181C8.33488 5.28388 7.94052 4.8877 7.45259 4.88545L1.75485 4.85924C0.78437 4.85478 0 4.06679 0 3.0963Z" fill="url(#paint0_linear_6398_485)"/>
</g>
<defs>
<linearGradient id="paint0_linear_6398_485" x1="8" y1="1.33334" x2="8" y2="14.6667" gradientUnits="userSpaceOnUse">
<stop stop-color="#FFD601"/>
<stop offset="1" stop-color="#FFB901"/>
</linearGradient>
</defs>
</svg>
