<svg width="24" height="24" viewBox="0 0 24 24" fill="none" xmlns="http://www.w3.org/2000/svg">
<g id="Icon_email" opacity="0.7" clip-path="url(#clip0_6398_341)">
<path id="Vector" d="M12 3C7.03201 3 3 7.03201 3 12C3 16.968 7.03201 21 12 21H15.6C16.0971 21 16.5 20.5971 16.5 20.1C16.5 19.603 16.0971 19.2 15.6 19.2H12C8.09401 19.2 4.8 15.906 4.8 12C4.8 8.09401 8.09401 4.8 12 4.8C15.906 4.8 19.2 8.09401 19.2 12V13.287C19.2 13.998 18.561 14.7 17.85 14.7C17.139 14.7 16.5 13.998 16.5 13.287V12C16.5 9.51601 14.484 7.50001 12 7.50001C9.51601 7.50001 7.50001 9.51601 7.50001 12C7.50001 14.484 9.51601 16.5 12 16.5C13.242 16.5 14.376 15.996 15.186 15.177C15.771 15.978 16.779 16.5 17.85 16.5C19.623 16.5 21 15.06 21 13.287V12C21 7.03201 16.968 3 12 3ZM12 14.7C10.506 14.7 9.30001 13.494 9.30001 12C9.30001 10.506 10.506 9.30001 12 9.30001C13.494 9.30001 14.7 10.506 14.7 12C14.7 13.494 13.494 14.7 12 14.7Z" fill="black" stroke="black" stroke-width="0.675001"/>
</g>
<defs>
<clipPath id="clip0_6398_341">
<rect width="24" height="24" fill="white"/>
</clipPath>
</defs>
</svg>
