<svg width="18" height="18" viewBox="0 0 18 18" fill="none" xmlns="http://www.w3.org/2000/svg">
<g id="icons8-chain-intermidiate 1" clip-path="url(#clip0_6398_472)">
<path id="Vector" d="M8.99984 0.833328C8.35551 0.833328 7.83317 1.35566 7.83317 1.99999V6.66666C7.83317 6.97608 7.95609 7.27283 8.17488 7.49162C8.39367 7.71041 8.69042 7.83333 8.99984 7.83333C9.30926 7.83333 9.606 7.71041 9.8248 7.49162C10.0436 7.27283 10.1665 6.97608 10.1665 6.66666V2C10.1665 1.35566 9.64417 0.833328 8.99984 0.833328ZM6.6665 3.32047C4.65692 3.8408 3.1665 5.66391 3.1665 7.83333V10.1667C3.1665 12.3361 4.65692 14.1592 6.6665 14.6795V12.1753C5.97234 11.7705 5.49984 11.0265 5.49984 10.1667V7.83333C5.49984 6.97349 5.97234 6.22954 6.6665 5.8247V3.32047ZM11.3332 3.32047V5.8247C12.0273 6.22954 12.4998 6.97349 12.4998 7.83333V10.1667C12.4998 11.0265 12.0273 11.7705 11.3332 12.1753V14.6795C13.3428 14.1592 14.8332 12.3367 14.8332 10.1667V7.83333C14.8332 5.66391 13.3428 3.8408 11.3332 3.32047ZM8.99984 10.1667C8.69042 10.1667 8.39367 10.2896 8.17488 10.5084C7.95609 10.7272 7.83317 11.0239 7.83317 11.3333V16C7.83317 16.6443 8.35551 17.1667 8.99984 17.1667C9.64417 17.1667 10.1665 16.6443 10.1665 16V11.3333C10.1665 11.0239 10.0436 10.7272 9.8248 10.5084C9.606 10.2896 9.30926 10.1667 8.99984 10.1667Z" fill="#998728"/>
</g>
<defs>
<clipPath id="clip0_6398_472">
<rect width="17.5" height="17.5" fill="white" transform="translate(0.25 0.25)"/>
</clipPath>
</defs>
</svg>
