<svg width="24" height="24" viewBox="0 0 24 24" fill="none" xmlns="http://www.w3.org/2000/svg">
<g id="Icon_twitter" opacity="0.7">
<path id="Vector" d="M22.3999 5.54975C21.6343 5.88975 20.8119 6.11855 19.9487 6.22175C20.8303 5.69375 21.5063 4.85775 21.8247 3.86095C21.0007 4.34975 20.0871 4.70495 19.1143 4.89695C18.3359 4.06735 17.2271 3.54895 15.9999 3.54895C13.6431 3.54895 11.7327 5.46015 11.7327 7.81615C11.7327 8.15055 11.7711 8.47695 11.8431 8.78815C8.29672 8.61055 5.15272 6.91135 3.04712 4.32895C2.68072 4.95935 2.47032 5.69215 2.47032 6.47535C2.47032 7.95535 3.22312 9.26175 4.36792 10.0266C3.66872 10.0042 3.01032 9.81215 2.43512 9.49295C2.43512 9.51135 2.43512 9.52815 2.43512 9.54655C2.43512 11.6146 3.90552 13.3394 5.85832 13.7306C5.50072 13.8282 5.12312 13.8802 4.73352 13.8802C4.45912 13.8802 4.19112 13.853 3.93112 13.8042C4.47432 15.4994 6.05032 16.7338 7.91752 16.7682C6.45752 17.913 4.61752 18.5954 2.61752 18.5954C2.27352 18.5954 1.93352 18.5754 1.59912 18.5354C3.48792 19.7458 5.73032 20.4522 8.14072 20.4522C15.9903 20.4522 20.2815 13.9498 20.2815 8.31055C20.2815 8.12575 20.2775 7.94175 20.2695 7.75855C21.1039 7.15615 21.8279 6.40495 22.3999 5.54975Z" fill="black"/>
</g>
</svg>
