<svg width="48" height="48" viewBox="0 0 48 48" fill="none" xmlns="http://www.w3.org/2000/svg">
<g id="Icon_access">
<path id="Union" fill-rule="evenodd" clip-rule="evenodd" d="M11.0769 5.53846C11.0769 8.59727 8.59727 11.0769 5.53846 11.0769C2.47965 11.0769 0 8.59727 0 5.53846C0 2.47965 2.47965 0 5.53846 0C8.59727 0 11.0769 2.47965 11.0769 5.53846ZM5.53846 29.5385C8.59727 29.5385 11.0769 27.0588 11.0769 24C11.0769 20.9412 8.59727 18.4615 5.53846 18.4615C2.47965 18.4615 0 20.9412 0 24C0 27.0588 2.47965 29.5385 5.53846 29.5385ZM5.53846 48C8.59727 48 11.0769 45.5203 11.0769 42.4615C11.0769 39.4027 8.59727 36.9231 5.53846 36.9231C2.47965 36.9231 0 39.4027 0 42.4615C0 45.5203 2.47965 48 5.53846 48ZM24 48C27.0588 48 29.5385 45.5203 29.5385 42.4615C29.5385 39.4027 27.0588 36.9231 24 36.9231C20.9412 36.9231 18.4615 39.4027 18.4615 42.4615C18.4615 45.5203 20.9412 48 24 48ZM29.5385 24C29.5385 27.0588 27.0588 29.5385 24 29.5385C20.9412 29.5385 18.4615 27.0588 18.4615 24C18.4615 20.9412 20.9412 18.4615 24 18.4615C27.0588 18.4615 29.5385 20.9412 29.5385 24ZM42.4615 48C45.5203 48 48 45.5203 48 42.4615C48 39.4027 45.5203 36.9231 42.4615 36.9231C39.4027 36.9231 36.9231 39.4027 36.9231 42.4615C36.9231 45.5203 39.4027 48 42.4615 48ZM48 5.53846C48 8.59727 45.5203 11.0769 42.4615 11.0769C39.4027 11.0769 36.9231 8.59727 36.9231 5.53846C36.9231 2.47965 39.4027 0 42.4615 0C45.5203 0 48 2.47965 48 5.53846ZM42.4615 29.5385C45.5203 29.5385 48 27.0588 48 24C48 20.9412 45.5203 18.4615 42.4615 18.4615C39.4027 18.4615 36.9231 20.9412 36.9231 24C36.9231 27.0588 39.4027 29.5385 42.4615 29.5385Z" fill="url(#paint0_linear_6288_9382)"/>
</g>
<defs>
<linearGradient id="paint0_linear_6288_9382" x1="16.6154" y1="-7.84615" x2="42.9231" y2="48" gradientUnits="userSpaceOnUse">
<stop stop-color="#BA85FF"/>
<stop offset="1" stop-color="#6533E4"/>
</linearGradient>
</defs>
</svg>
