<svg width="48" height="48" viewBox="0 0 48 48" fill="none" xmlns="http://www.w3.org/2000/svg">
<g id="Icon_ownership">
<path id="Union" fill-rule="evenodd" clip-rule="evenodd" d="M29.76 6.68306C29.76 9.86423 27.1812 12.4431 24 12.4431C20.8188 12.4431 18.24 9.86423 18.24 6.68306C18.24 3.5019 20.8188 0.923065 24 0.923065C27.1812 0.923065 29.76 3.5019 29.76 6.68306ZM14.4 28.7631C17.5811 28.7631 20.16 26.1842 20.16 23.0031C20.16 19.8219 17.5811 17.2431 14.4 17.2431C11.2188 17.2431 8.63999 19.8219 8.63999 23.0031C8.63999 26.1842 11.2188 28.7631 14.4 28.7631ZM5.76 45.0831C8.94116 45.0831 11.52 42.5042 11.52 39.3231C11.52 36.1419 8.94116 33.5631 5.76 33.5631C2.57884 33.5631 0 36.1419 0 39.3231C0 42.5042 2.57884 45.0831 5.76 45.0831ZM24 45.0831C27.1812 45.0831 29.76 42.5042 29.76 39.3231C29.76 36.1419 27.1812 33.5631 24 33.5631C20.8188 33.5631 18.24 36.1419 18.24 39.3231C18.24 42.5042 20.8188 45.0831 24 45.0831ZM39.36 23.0031C39.36 26.1842 36.7811 28.7631 33.6 28.7631C30.4188 28.7631 27.84 26.1842 27.84 23.0031C27.84 19.8219 30.4188 17.2431 33.6 17.2431C36.7811 17.2431 39.36 19.8219 39.36 23.0031ZM42.24 45.0831C45.4212 45.0831 48 42.5042 48 39.3231C48 36.1419 45.4212 33.5631 42.24 33.5631C39.0589 33.5631 36.48 36.1419 36.48 39.3231C36.48 42.5042 39.0589 45.0831 42.24 45.0831Z" fill="url(#paint0_linear_6288_9363)"/>
</g>
<defs>
<linearGradient id="paint0_linear_6288_9363" x1="12.5" y1="0.923065" x2="30.7241" y2="46.2004" gradientUnits="userSpaceOnUse">
<stop stop-color="#BA85FF"/>
<stop offset="1" stop-color="#6533E4"/>
</linearGradient>
</defs>
</svg>
