<svg width="20" height="20" viewBox="0 0 20 20" fill="none" xmlns="http://www.w3.org/2000/svg">
<g id="icons8-twitter 1">
<path id="Vector" d="M18.6668 4.62473C18.0288 4.90806 17.3434 5.09873 16.6241 5.18473C17.3588 4.74473 17.9221 4.04806 18.1874 3.2174C17.5008 3.62473 16.7394 3.92073 15.9288 4.08073C15.2801 3.3894 14.3561 2.9574 13.3334 2.9574C11.3694 2.9574 9.77743 4.55006 9.77743 6.5134C9.77743 6.79206 9.80943 7.06406 9.86943 7.3234C6.9141 7.1754 4.2941 5.7594 2.53943 3.6074C2.2341 4.13273 2.05876 4.7434 2.05876 5.39606C2.05876 6.6294 2.6861 7.71806 3.6401 8.3554C3.05743 8.33673 2.50876 8.17673 2.02943 7.91073C2.02943 7.92606 2.02943 7.94006 2.02943 7.9554C2.02943 9.67873 3.25476 11.1161 4.8821 11.4421C4.5841 11.5234 4.26943 11.5667 3.94476 11.5667C3.7161 11.5667 3.49276 11.5441 3.2761 11.5034C3.72876 12.9161 5.0421 13.9447 6.5981 13.9734C5.38143 14.9274 3.8481 15.4961 2.18143 15.4961C1.89476 15.4961 1.61143 15.4794 1.33276 15.4461C2.90676 16.4547 4.77543 17.0434 6.7841 17.0434C13.3254 17.0434 16.9014 11.6247 16.9014 6.9254C16.9014 6.7714 16.8981 6.61806 16.8914 6.4654C17.5868 5.9634 18.1901 5.3374 18.6668 4.62473Z" fill="#00ACEE"/>
</g>
</svg>
