<svg width="97" height="46" viewBox="0 0 97 46" fill="none" xmlns="http://www.w3.org/2000/svg">
<g id="Logo_fund_5" clip-path="url(#clip0_6398_356)">
<g id="Group">
<g id="Group 2">
<path id="Path 6" d="M16.9438 21.5667V14.8692L13.066 21.5667H8.91775L5.10655 14.8692V21.5667H0.368652V8.55688H6.69233L11.0232 16.3372L15.5274 8.55688H21.6817V21.5667H16.9438Z" fill="white"/>
<path id="Path 7" d="M28.4295 21.5664H23.1353L32.0375 8.55664H37.6871L46.1518 21.5664H40.7215L39.3734 19.517H29.8293L28.4295 21.5664ZM35.3601 13.2365L34.6854 12.1223L33.9603 13.2386L31.8026 16.4203H37.4506C37.4678 16.4187 35.3601 13.2365 35.3601 13.2365Z" fill="white"/>
<path id="Path 8" d="M61.7685 21.5663L61.6836 20.1505C60.386 21.0331 58.2777 21.766 55.1589 21.766C51.9546 21.766 49.0884 20.9327 47.4693 19.1329C46.4893 18.0045 45.9721 16.5547 46.0196 15.0686C45.9991 13.6458 46.5299 12.2691 47.5032 11.2204C49.1895 9.40516 52.1911 8.33875 56.2383 8.33875C61.0434 8.33875 64.0956 9.7716 65.3443 12.12C65.525 12.4772 65.6501 12.8593 65.7152 13.2533H60.9607C60.9268 13.0888 60.5559 12.8364 60.2527 12.6538C59.6786 12.2698 58.3305 11.8545 56.1889 11.8545C54.0473 11.8545 52.5298 12.2873 51.7036 13.1541C51.2464 13.6869 50.9954 14.3628 50.9954 15.0614C50.9954 15.76 51.2464 16.4359 51.7036 16.9688C52.5126 17.8021 54.0301 18.2513 56.1889 18.2513C58.1783 18.2513 59.7297 17.9184 60.607 17.3857C60.9335 17.2246 61.208 16.9764 61.3993 16.6693H55.3471V13.8716H65.8357V21.568L61.7685 21.5663Z" fill="white"/>
<path id="Path 9" d="M68.6333 21.5664V8.55664H73.7094V21.5664H68.6333Z" fill="white"/>
<path id="Path 10" d="M96.3387 17.7656C95.1244 20.3312 92.1238 21.7641 86.4409 21.7641C81.4993 21.7641 78.5009 20.4815 77.0656 18.516C76.3519 17.4936 75.9804 16.276 76.0034 15.0342C75.9759 13.8511 76.33 12.6899 77.0145 11.7187C78.532 9.66927 81.5503 8.30334 86.5092 8.30334C92.8157 8.30334 95.3443 10.4861 96.3565 12.518C96.5746 13.0098 96.7113 13.533 96.7612 14.0677H91.5475C91.4788 13.8531 91.3653 13.6552 91.2144 13.4867C90.6413 12.7703 89.09 12.0539 86.4765 12.0539C84.0151 12.0539 82.1261 12.6705 81.4182 13.8702C81.2131 14.2364 81.1138 14.6512 81.1311 15.0694C81.1212 15.4784 81.2263 15.8821 81.4348 16.2356C82.2438 17.5193 84.3527 18.0349 86.4759 18.0349C88.8035 18.0349 90.658 17.7019 91.3998 16.585C91.5054 16.4316 91.5691 16.2538 91.5847 16.0688H96.7951C96.7141 16.6508 96.5608 17.2206 96.3387 17.7656Z" fill="white"/>
</g>
<g id="Group 3">
<path id="Path 11" d="M5.67737 38.3506H0V24.6112H16.7056V28.805H5.67737V29.776H16.2337V33.8864H5.67737V38.3506ZM0.735698 37.6215H4.93834V33.1573H15.4958V30.5044H4.94001V28.0759H15.9677V25.3402H0.735698V37.6215Z" fill="white"/>
<path id="Path 12" d="M28.0409 38.5342C21.8221 38.5342 18.3979 36.103 18.3979 31.6892V24.6127H24.127V31.8554C24.127 33.3711 25.6583 34.2401 28.3274 34.2401C30.9048 34.2401 32.4434 33.3486 32.4434 31.8554V24.6111H38.1069V32.2553C38.1052 36.3043 34.5306 38.5342 28.0409 38.5342ZM19.1359 25.3401V31.6892C19.1359 37.0103 24.715 37.8052 28.0414 37.8052C31.5239 37.8052 37.3695 37.0838 37.3695 32.2553V25.3401H33.183V31.8554C33.183 33.7754 31.3235 34.9691 28.329 34.9691C25.2369 34.9691 23.3907 33.805 23.3907 31.8554V25.3401H19.1359Z" fill="white"/>
<path id="Path 13" d="M59.7258 38.3505H54.361L46.2695 31.297V38.3505H40.7598V24.6111H46.3772L54.2661 31.4819V24.6111H59.7258V38.3505ZM54.6403 37.6214H58.9884V25.3401H55.004V33.0985L46.0984 25.3401H41.4977V37.622H45.5321V29.682L54.6403 37.6214Z" fill="white"/>
<path id="Path 14" d="M73.8767 38.3505H62.3276V24.6111H73.8767C77.7007 24.6111 80.2276 25.7137 81.3858 27.8877C81.9234 28.9293 82.1875 30.0877 82.1537 31.2564C82.1819 32.4861 81.9333 33.7066 81.4258 34.8298C80.2809 37.1661 77.7412 38.3505 73.8767 38.3505ZM63.0683 37.622H73.8789C77.4369 37.622 79.7529 36.5759 80.764 34.5121C81.2227 33.4879 81.446 32.3761 81.418 31.2564C81.4509 30.2078 81.217 29.1678 80.7379 28.2316C79.7146 26.3116 77.4064 25.3396 73.8789 25.3396H63.0683V37.622ZM73.0505 35.0185H67.2682V27.9266H73.1182C75.0672 27.9266 76.2432 28.439 76.8184 29.5394C77.0694 30.1276 77.1982 30.7596 77.1971 31.3979C77.2419 32.1057 77.106 32.8133 76.8017 33.4556C76.2021 34.5248 75.0111 35.0185 73.0505 35.0185ZM68.0061 34.2894H73.0505C74.7162 34.2894 75.7001 33.9148 76.1504 33.1111C76.3941 32.5782 76.5 31.9939 76.4586 31.4106C76.4619 30.8761 76.3581 30.3462 76.1532 29.8515C75.7218 29.0287 74.7829 28.6518 73.1177 28.6518H68.0061V34.2894Z" fill="white"/>
</g>
</g>
</g>
<defs>
<clipPath id="clip0_6398_356">
<rect width="97" height="46" fill="white"/>
</clipPath>
</defs>
</svg>
