<svg width="165" height="46" viewBox="0 0 165 46" fill="none" xmlns="http://www.w3.org/2000/svg">
<g id="Logo_fund_2">
<path id="Vector" d="M88.1986 26.6394C87.9838 27.3486 87.6965 28.0222 87.3743 28.625C87.2669 28.8378 87.1595 29.0151 87.0514 29.2278C86.4782 30.0433 85.4747 30.6106 84.3993 30.6106C83.4321 30.6106 82.536 30.1851 81.9628 29.5114C81.9265 29.476 81.8909 29.4405 81.8554 29.4051C81.2459 28.7314 80.386 28.3059 79.4181 28.3059C79.167 28.3059 78.9523 28.3413 78.7375 28.3768V35.0073C78.0206 35.1491 77.2319 35.22 76.4794 35.22C69.6702 35.22 64.187 29.7597 64.187 23.0582C64.187 16.3569 69.6344 10.8611 76.4439 10.8611C77.734 10.8611 78.9878 11.0738 80.1705 11.4284L76.515 15.045L78.7375 17.2433L86.55 24.9729L86.8722 25.2921L88.1986 26.6394Z" fill="url(#paint0_linear_6398_383)"/>
<path id="Vector_2" d="M0.250977 26.4623L1.39779 25.8951C2.00704 27.2779 3.40472 28.0225 5.19662 28.0225C7.13187 28.0225 8.60119 27.0297 8.60119 25.3277C8.60119 23.484 6.91684 23.1294 5.0891 22.7394C2.97466 22.2785 0.573518 21.6757 0.573518 18.9101C0.573518 16.7472 2.61628 15.0807 5.05326 15.0807C7.06019 15.0807 8.88795 16.038 9.64054 17.8463L8.52957 18.4137C7.88444 17.0663 6.66597 16.3217 5.01743 16.3217C3.36888 16.3217 1.93536 17.3854 1.93536 18.8391C1.93536 20.6829 3.65558 21.0375 5.51916 21.4275C7.6336 21.8885 9.99891 22.4912 9.99891 25.2923C9.92722 27.7388 7.84859 29.2989 5.19662 29.2989C2.97466 29.2989 1.03941 28.3061 0.250977 26.4623Z" fill="white"/>
<path id="Vector_3" d="M12.3286 29.1569V15.2932H13.6546V21.64H21.969V15.2932H23.295V29.1569H21.969V22.8455H13.6546V29.1214H12.3286V29.1569Z" fill="white"/>
<path id="Vector_4" d="M28.0618 15.2932V29.1569H26.7358V15.2932H28.0618Z" fill="white"/>
<path id="Vector_5" d="M30.4629 29.1569L32.4698 16.5697C32.649 15.5769 33.3657 15.045 34.2617 15.045C35.0501 15.045 35.7669 15.4351 36.0177 16.3215L39.0282 26.8522C39.0998 27.1713 39.1715 27.2777 39.3507 27.2777C39.5298 27.2777 39.6015 27.1358 39.6732 26.8522L42.6836 16.357C42.9345 15.4705 43.6513 15.045 44.4397 15.045C45.2998 15.045 46.0166 15.5769 46.1957 16.6052L48.0235 29.086H46.6975L44.9772 16.9597C44.9056 16.4988 44.7981 16.2151 44.4039 16.2151C44.1172 16.2151 43.9021 16.4633 43.7946 16.8888L40.6767 27.455C40.4975 28.0932 39.9599 28.4478 39.3507 28.4478C38.7773 28.4478 38.2039 28.1287 38.0247 27.4905L34.9068 16.8533C34.7635 16.4279 34.6201 16.2151 34.3334 16.2151C34.0466 16.2151 33.7958 16.4633 33.7241 16.9597L31.8247 29.1214H30.4629V29.1569Z" fill="white"/>
<path id="Vector_6" d="M53.0051 16.7472C53.3635 15.6125 54.1878 15.0807 55.263 15.0807C56.3022 15.0807 57.1624 15.6125 57.5207 16.7472L61.4629 29.1571H60.101L58.9184 25.2923L51.6791 25.3277L50.4248 29.1571H49.063L53.0051 16.7472ZM52.0017 24.0513H58.4883L56.3381 17.1372C56.1589 16.5699 55.8005 16.2862 55.263 16.2862C54.6895 16.2862 54.367 16.5699 54.1878 17.1372L52.0017 24.0513Z" fill="white"/>
<path id="Vector_7" d="M90.9219 22.2076C90.9219 18.2363 94.0753 15.0807 97.9101 15.0807C100.276 15.0807 102.354 16.2508 103.465 18.1655L102.39 18.8037C101.458 17.279 99.7735 16.3217 97.9101 16.3217C94.8641 16.3217 92.3194 18.9101 92.3194 22.2076C92.3194 25.5405 94.8278 28.1289 97.9101 28.1289C99.7735 28.1289 101.458 27.2069 102.39 25.6823L103.465 26.3206C102.354 28.2352 100.276 29.4053 97.9101 29.4053C94.0753 29.3699 90.9219 26.2142 90.9219 22.2076Z" fill="white"/>
<path id="Vector_8" d="M107.478 16.7472C107.836 15.6125 108.661 15.0807 109.736 15.0807C110.811 15.0807 111.636 15.6125 111.993 16.7472L115.935 29.1571H114.574L113.391 25.2923L106.152 25.3277L104.898 29.1571H103.536L107.478 16.7472ZM106.474 24.0513H112.961L110.811 17.1372C110.632 16.5699 110.274 16.2862 109.736 16.2862C109.163 16.2862 108.84 16.5699 108.661 17.1372L106.474 24.0513Z" fill="white"/>
<path id="Vector_9" d="M117.943 29.1569V15.2932H121.993C125.577 15.2932 128.013 16.8533 128.013 20.0799C128.013 23.4128 125.469 24.902 122.029 24.902H119.269V29.1923H117.943V29.1569ZM119.269 16.5342V23.6256H121.993C124.573 23.6256 126.616 22.5974 126.616 20.0444C126.616 17.5979 124.716 16.4988 121.993 16.4988H119.269V16.5342Z" fill="white"/>
<path id="Vector_10" d="M131.204 15.2932V29.1569H129.877V15.2932H131.204Z" fill="white"/>
<path id="Vector_11" d="M142.814 16.5342H138.335V29.1569H137.009V16.5342H132.565V15.2932H142.814V16.5342Z" fill="white"/>
<path id="Vector_12" d="M145.862 16.7472C146.22 15.6125 147.044 15.0807 148.119 15.0807C149.194 15.0807 150.019 15.6125 150.377 16.7472L154.319 29.1571H152.922L151.739 25.2923L144.5 25.3277L143.281 29.1925H141.919L145.862 16.7472ZM144.858 24.0513H151.344L149.194 17.1372C149.015 16.5699 148.657 16.2862 148.119 16.2862C147.546 16.2862 147.224 16.5699 147.044 17.1372L144.858 24.0513Z" fill="white"/>
<path id="Vector_13" d="M157.651 27.9159H164.962V29.1569H157.651C156.648 29.1569 156.326 28.6605 156.326 27.845V15.2932H157.651V27.9159Z" fill="white"/>
</g>
<defs>
<linearGradient id="paint0_linear_6398_383" x1="84.4216" y1="10.8611" x2="70.1913" y2="37.1635" gradientUnits="userSpaceOnUse">
<stop stop-color="white" stop-opacity="0.3"/>
<stop offset="1" stop-color="white"/>
</linearGradient>
</defs>
</svg>
