<svg width="129" height="46" viewBox="0 0 129 46" fill="none" xmlns="http://www.w3.org/2000/svg">
<g id="Logo_fund_4" clip-path="url(#clip0_6398_369)">
<g id="Group">
<path id="Vector" d="M103.869 16.1589C101.818 16.1589 99.9863 16.9914 98.6677 18.367L89.1445 27.2356C88.2655 28.0319 87.1667 28.4663 86.0312 28.4301C85.9579 28.4301 85.8847 28.4301 85.8114 28.4301C83.2841 28.2491 81.233 26.1858 81.0498 23.6881C80.94 22.2402 81.4527 20.8647 82.4417 19.8149C83.4306 18.7652 84.7859 18.186 86.251 18.186C87.4597 18.186 88.6684 18.6204 89.5841 19.3805C90.0236 19.7425 90.6829 19.7063 91.0492 19.2719C91.4155 18.8376 91.3788 18.186 90.9393 17.824C89.6207 16.7381 87.9725 16.1227 86.251 16.1227C84.2364 16.1227 82.3318 16.9552 80.94 18.4032C79.5481 19.8873 78.8522 21.7696 78.9987 23.7967C79.2551 27.308 82.112 30.1676 85.6649 30.421C85.7748 30.421 85.8847 30.421 85.9579 30.421C86.0312 30.421 86.1045 30.421 86.1777 30.421C87.7527 30.421 89.3643 29.7695 90.573 28.6473L96.6898 22.9642C96.6898 23.0728 96.6898 23.1452 96.6898 23.2538C96.6898 27.1994 99.9497 30.421 103.942 30.421C105.224 30.421 106.506 30.0953 107.605 29.4437C108.081 29.1541 108.264 28.5387 107.971 28.0319C107.678 27.5614 107.055 27.3804 106.543 27.67C105.737 28.1405 104.858 28.3577 103.905 28.3577C101.049 28.3577 98.7044 26.0772 98.7044 23.2176C98.7044 21.8782 99.2538 20.6475 100.096 19.7063L100.243 19.5615C100.279 19.5253 100.279 19.5253 100.316 19.4891C101.232 18.6204 102.514 18.0774 103.869 18.0774C106.726 18.0774 109.07 20.3579 109.07 23.2176V29.3713C109.07 29.9505 109.546 30.3848 110.096 30.3848C110.682 30.3848 111.121 29.9143 111.121 29.3713V23.2176C111.121 19.3805 107.861 16.1589 103.869 16.1589Z" fill="white"/>
<path id="Vector_2" d="M120.718 16.1591C118.996 16.1591 117.421 16.7382 116.14 17.788V17.2812C116.14 16.702 115.663 16.2677 115.114 16.2677C114.528 16.2677 114.088 16.7382 114.088 17.2812V34.6564C114.088 35.2356 114.565 35.67 115.114 35.67C115.7 35.67 116.14 35.1994 116.14 34.6564V28.8647C117.421 29.9144 119.033 30.4936 120.718 30.4936C124.71 30.4936 127.97 27.272 127.97 23.3263C127.934 19.3807 124.71 16.1591 120.718 16.1591ZM120.718 28.4303C119.363 28.4303 118.081 27.9235 117.128 27.0186C116.726 26.6204 116.396 26.186 116.14 25.7154V20.8648C116.213 20.7201 116.396 20.4667 116.579 20.2133C117.568 18.9101 119.07 18.15 120.718 18.15C123.575 18.15 125.919 20.4305 125.919 23.2901C125.882 26.1498 123.575 28.4303 120.718 28.4303Z" fill="white"/>
<path id="Vector_3" d="M10.6885 30.4214H6.58618C2.81354 30.4214 -0.263184 27.3807 -0.263184 23.6523V11.2725C-0.263184 10.6933 0.212975 10.2589 0.762389 10.2589C1.3118 10.2589 1.78796 10.7295 1.78796 11.2725V23.6523C1.78796 26.2586 3.94899 28.3943 6.58618 28.3943H10.6518C11.2379 28.3943 11.6774 28.8649 11.6774 29.4079C11.714 29.9508 11.2379 30.4214 10.6885 30.4214Z" fill="white"/>
<path id="Vector_4" d="M19.0394 30.4211C15.047 30.4211 11.7505 27.1995 11.7505 23.2176C11.7505 19.2358 15.0103 16.0142 19.0394 16.0142C20.9806 16.0142 22.812 16.7743 24.1672 18.1137C24.5701 18.5118 24.5701 19.1634 24.1672 19.5616L16.3289 27.3081C16.2557 27.3805 16.1824 27.4166 16.1092 27.489C16.9516 28.032 17.9406 28.3578 19.0394 28.3578C20.1748 28.3578 21.237 27.9958 22.1161 27.3443C22.5923 27.0185 23.2149 27.0909 23.5446 27.5614C23.8742 28.032 23.801 28.6474 23.3248 28.9732C22.0795 29.9143 20.5777 30.4211 19.0394 30.4211ZM19.0394 18.0775C16.1824 18.0775 13.8383 20.3942 13.8383 23.2176C13.8383 24.2674 14.1679 25.2809 14.7173 26.1135C14.754 26.0411 14.8272 25.9687 14.9005 25.8963L21.933 18.9462C21.0539 18.3671 20.065 18.0775 19.0394 18.0775Z" fill="white"/>
<path id="Vector_5" d="M38.7819 16.2314C37.3168 16.2314 35.9616 16.9192 35.1192 17.9689C34.2401 16.883 32.9215 16.1952 31.4198 16.1952C30.2843 16.1952 29.2221 16.5934 28.4163 17.2811C28.2332 17.1363 28.0134 17.0278 27.757 17.0278C27.171 17.0278 26.7314 17.4983 26.7314 18.0413V29.4076C26.7314 29.9868 27.2076 30.4212 27.757 30.4212C28.3064 30.4212 28.7826 29.9506 28.7826 29.4076V20.8648C28.7826 19.4168 29.9913 18.2585 31.4198 18.2585C32.8849 18.2585 34.057 19.453 34.057 20.8648V29.3714C34.057 29.9506 34.5331 30.385 35.0825 30.385C35.6686 30.385 36.1081 29.9144 36.1081 29.3714V20.901C36.1081 19.453 37.3168 18.2947 38.7453 18.2947C40.2104 18.2947 41.3825 19.4892 41.3825 20.901V29.4076C41.3825 29.9868 41.8587 30.4212 42.4081 30.4212C42.9941 30.4212 43.4336 29.9506 43.4336 29.4076V20.901C43.5069 18.3309 41.3825 16.2314 38.7819 16.2314Z" fill="white"/>
<path id="Vector_6" d="M52.2603 16.2312C50.7952 16.2312 49.44 16.7742 48.4144 17.6791C48.2679 17.3172 47.9016 17.0276 47.4621 17.0276C46.8761 17.0276 46.4365 17.4981 46.4365 18.0411V29.4074C46.4365 29.9866 46.9127 30.421 47.4621 30.421C48.0481 30.421 48.4877 29.9504 48.4877 29.4074V21.9867C48.4877 21.9867 48.4877 21.9867 48.4877 21.9505C48.4877 19.8872 50.1725 18.2221 52.2603 18.2221C54.3481 18.2221 56.033 19.8872 56.033 21.9505V29.4074C56.033 29.9866 56.5091 30.421 57.0585 30.421C57.6446 30.421 58.0841 29.9504 58.0841 29.4074V21.9867C58.0841 18.8013 55.4835 16.2312 52.2603 16.2312Z" fill="white"/>
<path id="Vector_7" d="M73.0281 30.4212C72.9915 30.4212 72.9915 30.4212 72.9915 30.4212H67.7903C67.2043 30.4212 66.7648 29.9506 66.7648 29.4076C66.7648 28.8284 67.2409 28.394 67.7903 28.394H73.0281C73.0647 28.394 74.017 28.394 74.6031 27.8149C74.9327 27.4891 75.1159 26.9823 75.1159 26.3307C75.1159 25.6792 74.9327 25.1724 74.6031 24.8466C74.017 24.2674 73.0647 24.2674 73.0647 24.2674H70.1711C69.9514 24.2674 68.3031 24.2312 67.131 23.0729C66.4351 22.3851 66.0688 21.444 66.0688 20.3218C66.0688 17.3173 68.7427 16.3038 70.1345 16.1952C70.1711 16.1952 70.1711 16.1952 70.2078 16.1952H75.2624C75.8484 16.1952 76.2879 16.6658 76.2879 17.2087C76.2879 17.7517 75.8118 18.2223 75.2624 18.2223H70.281C69.8781 18.2585 68.1566 18.5481 68.1566 20.3218C68.1566 20.901 68.3031 21.3354 68.6328 21.6249C69.2188 22.2041 70.2078 22.2403 70.2444 22.2403H73.138C73.2845 22.2403 74.9327 22.2403 76.1414 23.3987C76.9106 24.1226 77.2769 25.1 77.2769 26.3307C77.2769 27.5615 76.9106 28.5388 76.1414 29.2628C74.8961 30.3488 73.3577 30.4212 73.0281 30.4212Z" fill="white"/>
<g id="Group_2">
<path id="Vector_8" d="M62.0393 30.4211C61.4535 30.4211 61.0142 29.9505 61.0142 29.4075V17.462C61.0142 16.8829 61.4901 16.4485 62.0393 16.4485C62.5885 16.4485 63.0644 16.9191 63.0644 17.462V29.4075C63.0644 29.9505 62.6251 30.4211 62.0393 30.4211Z" fill="white"/>
<path id="Vector_9" d="M60.685 13.9145C60.5385 13.9145 60.3554 13.8421 60.2455 13.7335C59.9891 13.4801 59.9891 13.1182 60.2455 12.8648L61.6374 11.4892C61.8938 11.2358 62.26 11.2358 62.5164 11.4892L63.8716 12.8286C64.128 13.082 64.128 13.4439 63.8716 13.6973C63.6153 13.9507 63.249 13.9507 62.9926 13.6973L62.0769 12.7924L61.1246 13.7335C61.0147 13.8783 60.8316 13.9145 60.685 13.9145Z" fill="white"/>
</g>
</g>
</g>
<defs>
<clipPath id="clip0_6398_369">
<rect width="129" height="46" fill="white"/>
</clipPath>
</defs>
</svg>
