<svg width="37" height="22" viewBox="0 0 37 22" fill="none" xmlns="http://www.w3.org/2000/svg">
<g id="Logo">
<path id="Vector 2" opacity="0.6" d="M26.2632 5.52893L28.2577 13.8553C28.4763 14.7679 27.7845 15.645 26.8461 15.645H8.85841C7.14492 15.645 5.61376 14.575 5.02473 12.9659L4.86135 12.5196C4.77467 12.2828 4.94996 12.032 5.20212 12.032H16.9494C17.0886 12.032 17.2013 11.9192 17.2013 11.7801C17.2013 10.7368 16.3555 9.89096 15.3122 9.89096H6.75202C5.03852 9.89096 3.50737 8.82095 2.91833 7.21188L2.77129 6.81019C2.6846 6.57339 2.8599 6.32255 3.11206 6.32255H14.2731C14.4123 6.32255 14.525 6.20978 14.525 6.07067C14.525 5.02732 13.6792 4.18151 12.6359 4.18151H4.66195C2.94846 4.18151 1.4173 3.1115 0.82827 1.50243L0.697552 1.14535C0.610868 0.908555 0.786162 0.657715 1.03832 0.657715H20.0874C23.0249 0.657715 25.579 2.67228 26.2632 5.52893Z" fill="black"/>
<path id="Vector 3" d="M33.325 8.00723L36.1221 20.0198C36.3341 20.9301 35.643 21.8005 34.7084 21.8005H15.9471C14.1701 21.8005 12.5973 20.6511 12.0575 18.9582L11.8674 18.3619C11.7554 18.0108 12.0175 17.6522 12.386 17.6522H29.5177C30.4575 17.6522 31.1496 16.7726 30.9284 15.8591L28.4261 5.523C28.3431 5.18044 28.6027 4.85059 28.9551 4.85059H29.3489C31.2469 4.85059 32.8945 6.15866 33.325 8.00723Z" fill="black"/>
</g>
</svg>
