<svg width="28" height="28" viewBox="0 0 28 28" fill="none" xmlns="http://www.w3.org/2000/svg">
<g id="NEAR Protocol (NEAR)">
<circle id="NEAR Protocol (NEAR)_2" cx="14" cy="14" r="14" fill="black"/>
<g id="NEAR Protocol (NEAR)_3">
<path id="NEAR Protocol (NEAR)_4" d="M18.2332 7.71569L15.3082 12.0565C15.1059 12.3521 15.4949 12.7099 15.775 12.461L18.6533 9.9561C18.7311 9.89387 18.84 9.94054 18.84 10.0495V17.8753C18.84 17.9843 18.6999 18.0309 18.6377 17.9531L9.92499 7.52899C9.64493 7.1867 9.24041 7 8.78922 7H8.47805C7.66901 7 7 7.66901 7 8.49361V19.509C7 20.3336 7.66901 21.0026 8.49361 21.0026C9.00704 21.0026 9.48935 20.7381 9.7694 20.2869L12.6944 15.9461C12.8966 15.6505 12.5077 15.2926 12.2276 15.5416L9.34932 18.0309C9.27153 18.0932 9.16262 18.0465 9.16262 17.9376V10.1272C9.16262 10.0183 9.30265 9.97166 9.36488 10.0495L18.0776 20.4736C18.3577 20.8159 18.7777 21.0026 19.2134 21.0026H19.5245C20.3491 21.0026 21.0182 20.3336 21.0182 19.509V8.49361C21.0182 7.66901 20.3491 7 19.5245 7C18.9956 7 18.5132 7.26449 18.2332 7.71569Z" fill="white"/>
</g>
</g>
</svg>
