<svg width="28" height="28" viewBox="0 0 28 28" fill="none" xmlns="http://www.w3.org/2000/svg">
<g id="Polygon (MATIC)">
<circle id="Polygon (MATIC)_2" cx="14" cy="14" r="14" fill="#EDF0F4"/>
<g id="Polygon (MATIC)_3">
<path id="Polygon (MATIC)_4" d="M18.2003 11.1882C17.9018 11.0165 17.518 11.0165 17.1768 11.1882L14.7886 12.6049L13.1681 13.5063L10.8226 14.923C10.524 15.0947 10.1402 15.0947 9.79907 14.923L7.9653 13.8068C7.66678 13.6351 7.45355 13.2917 7.45355 12.9053V10.759C7.45355 10.4155 7.62413 10.0721 7.9653 9.85747L9.79907 8.78428C10.0976 8.61257 10.4814 8.61257 10.8226 8.78428L12.6563 9.9004C12.9549 10.0721 13.1681 10.4155 13.1681 10.8019V12.2185L14.7886 11.2741V9.81454C14.7886 9.47112 14.618 9.1277 14.2769 8.91306L10.8652 6.89545C10.5667 6.72374 10.1829 6.72374 9.84171 6.89545L6.34476 8.95599C6.00359 9.1277 5.83301 9.47112 5.83301 9.81454V13.8498C5.83301 14.1932 6.00359 14.5366 6.34476 14.7512L9.79907 16.7688C10.0976 16.9406 10.4814 16.9406 10.8226 16.7688L13.1681 15.3952L14.7886 14.4507L17.1341 13.0771C17.4327 12.9053 17.8165 12.9053 18.1576 13.0771L19.9914 14.1503C20.2899 14.322 20.5032 14.6654 20.5032 15.0517V17.1981C20.5032 17.5415 20.3326 17.885 19.9914 18.0996L18.2003 19.1728C17.9018 19.3445 17.518 19.3445 17.1768 19.1728L15.343 18.0996C15.0445 17.9279 14.8313 17.5845 14.8313 17.1981V15.8244L13.2107 16.7688V18.1855C13.2107 18.5289 13.3813 18.8723 13.7225 19.0869L17.1768 21.1046C17.4753 21.2763 17.8591 21.2763 18.2003 21.1046L21.6546 19.0869C21.9531 18.9152 22.1663 18.5718 22.1663 18.1855V14.1073C22.1663 13.7639 21.9958 13.4205 21.6546 13.2058L18.2003 11.1882Z" fill="#8247E5"/>
</g>
</g>
</svg>
