<svg width="18" height="16" viewBox="0 0 18 16" fill="none" xmlns="http://www.w3.org/2000/svg">
<path id="Shape" fill-rule="evenodd" clip-rule="evenodd" d="M2 0.25C1.30964 0.25 0.75 0.809644 0.75 1.5C0.75 2.19036 1.30964 2.75 2 2.75H16C16.6904 2.75 17.25 2.19036 17.25 1.5C17.25 0.809644 16.6904 0.25 16 0.25H2ZM0.75 8C0.75 7.30964 1.30964 6.75 2 6.75H16C16.6904 6.75 17.25 7.30964 17.25 8C17.25 8.69036 16.6904 9.25 16 9.25H2C1.30964 9.25 0.75 8.69036 0.75 8ZM0.75 14.5C0.75 13.8096 1.30964 13.25 2 13.25H16C16.6904 13.25 17.25 13.8096 17.25 14.5C17.25 15.1904 16.6904 15.75 16 15.75H2C1.30964 15.75 0.75 15.1904 0.75 14.5Z" fill="white"/>
</svg>
