<svg width="28" height="28" viewBox="0 0 28 28" fill="none" xmlns="http://www.w3.org/2000/svg">
<g id="Solana (SOL)">
<circle id="Solana (SOL)_2" cx="14" cy="14" r="14" fill="black"/>
<g id="Solana (SOL)_3">
<path id="Solana (SOL)_4" d="M8.67907 17.3168C8.77608 17.2197 8.90948 17.1631 9.05096 17.1631H21.8814C22.1158 17.1631 22.2331 17.4461 22.0673 17.6118L19.5328 20.1464C19.4358 20.2434 19.3024 20.3 19.1609 20.3H6.33046C6.09601 20.3 5.97878 20.017 6.14451 19.8513L8.67907 17.3168Z" fill="url(#paint0_linear_39_145)"/>
<path id="Solana (SOL)_5" d="M8.67907 7.85361C8.78013 7.75659 8.91352 7.7 9.05096 7.7H21.8814C22.1158 7.7 22.2331 7.98296 22.0673 8.1487L19.5328 10.6833C19.4358 10.7803 19.3024 10.8369 19.1609 10.8369H6.33046C6.09601 10.8369 5.97878 10.5539 6.14451 10.3882L8.67907 7.85361Z" fill="url(#paint1_linear_39_145)"/>
<path id="Solana (SOL)_6" d="M19.5328 12.5549C19.4358 12.4579 19.3024 12.4013 19.1609 12.4013H6.33046C6.09601 12.4013 5.97878 12.6842 6.14451 12.85L8.67907 15.3845C8.77608 15.4815 8.90948 15.5381 9.05096 15.5381H21.8814C22.1158 15.5381 22.2331 15.2552 22.0673 15.0894L19.5328 12.5549Z" fill="url(#paint2_linear_39_145)"/>
</g>
</g>
<defs>
<linearGradient id="paint0_linear_39_145" x1="-22.9321" y1="5.31971" x2="-23.2734" y2="22.4975" gradientUnits="userSpaceOnUse">
<stop stop-color="#00FFA3"/>
<stop offset="1" stop-color="#DC1FFF"/>
</linearGradient>
<linearGradient id="paint1_linear_39_145" x1="-26.8147" y1="3.29262" x2="-27.1561" y2="20.4704" gradientUnits="userSpaceOnUse">
<stop stop-color="#00FFA3"/>
<stop offset="1" stop-color="#DC1FFF"/>
</linearGradient>
<linearGradient id="paint2_linear_39_145" x1="-24.8858" y1="4.29972" x2="-25.2272" y2="21.4775" gradientUnits="userSpaceOnUse">
<stop stop-color="#00FFA3"/>
<stop offset="1" stop-color="#DC1FFF"/>
</linearGradient>
</defs>
</svg>
