<svg width="28" height="28" viewBox="0 0 28 28" fill="none" xmlns="http://www.w3.org/2000/svg">
<g id="Terra (LUNA)">
<circle id="Terra (LUNA)_2" cx="14" cy="14" r="14" fill="#172852"/>
<g id="Terra (LUNA)_3">
<path id="Terra (LUNA)_4" d="M11.2766 6.25658C12.916 5.64338 14.7612 5.64198 16.4314 6.14598C18.6055 6.82078 20.4409 8.46158 21.4 10.521C21.6645 11.1076 21.918 11.7194 21.9432 12.3718C20.721 11.6634 19.3812 11.2042 18.0386 10.7856C15.891 10.0114 13.6426 9.47378 11.6098 8.40978C11.1366 8.12698 10.5332 7.83718 10.4044 7.24778C10.3526 6.73818 10.8916 6.45398 11.2766 6.25658Z" fill="#FFD83D"/>
<path id="Terra (LUNA)_5" d="M6.32776 11.2126C6.80236 9.92459 7.58076 8.72899 8.63776 7.84279C8.90656 10.0534 9.84736 12.1898 11.4014 13.797C13.2648 15.7332 15.9192 16.9218 18.6198 16.877C19.6922 16.9106 20.7408 16.6628 21.7866 16.4626C20.7576 20.181 16.6822 22.6492 12.9064 22.0556C10.6272 21.7644 8.52296 20.4148 7.25316 18.5094C5.82096 16.4038 5.45976 13.608 6.32776 11.2126Z" fill="#FFD83D"/>
</g>
<path id="Terra (LUNA)_6" d="M18.0391 10.7856C19.3817 11.2042 20.7215 11.6634 21.9437 12.3718L22.0263 12.4152C22.1397 13.2678 22.2223 14.1372 22.0711 14.9912C21.4565 14.7308 20.9581 14.273 20.4373 13.8684C19.4349 13.034 18.4115 12.0792 18.0391 10.7856Z" fill="#FF6F03"/>
</g>
</svg>
