<svg width="187" height="16" viewBox="0 0 187 16" fill="none" xmlns="http://www.w3.org/2000/svg">
<path id="Underline_4" d="M170.3 7.24551C169.957 7.1946 169.61 7.14776 169.267 7.09482C168.779 7.01744 168.152 7.07445 167.882 6.78121C167.851 6.80158 167.819 6.8199 167.788 6.84027C167.835 6.87896 167.882 6.91969 167.939 6.96449C167.337 6.9258 166.756 6.88914 166.175 6.85045C166.159 6.86471 166.149 6.87692 166.133 6.89118C166.382 6.94209 166.631 6.99503 166.828 7.03576C166.693 7.03576 166.398 7.07242 166.304 7.02965C165.692 6.74252 164.748 6.80361 164.011 6.65496C164.026 6.63052 164.042 6.60812 164.052 6.58368C164.53 6.60812 165.002 6.63052 165.479 6.65496C165.484 6.64885 165.49 6.64274 165.495 6.63663C165.329 6.60812 165.168 6.57961 165.002 6.5511C165.007 6.53684 165.012 6.52259 165.012 6.50833C165.427 6.53074 165.842 6.55314 166.258 6.57554C166.268 6.56739 166.278 6.55925 166.289 6.55314C166.195 6.53074 166.107 6.5063 166.014 6.4839C166.008 6.46761 166.008 6.45335 166.003 6.43706C166.367 6.41873 166.725 6.40041 167.088 6.38208C167.083 6.36579 167.083 6.3495 167.077 6.3332C166.667 6.38615 166.294 6.26397 165.837 6.3556C165.583 6.40651 165.178 6.32506 164.857 6.266C165.09 6.25175 165.324 6.23749 165.557 6.22324C165.557 6.21306 165.552 6.20287 165.547 6.19269C165.194 6.19269 164.841 6.19269 164.415 6.19269C164.54 6.25582 164.628 6.29858 164.794 6.38208C164.198 6.34746 163.71 6.3108 163.217 6.29451C162.568 6.27415 161.914 6.27618 161.266 6.25582C161.115 6.25175 160.97 6.20287 160.83 6.13364C162.496 6.11938 164.166 6.10513 165.832 6.09291C165.832 6.07458 165.837 6.05422 165.837 6.03589C165.422 5.99923 165.002 5.96054 164.587 5.92389C164.587 5.91371 164.587 5.90556 164.592 5.89538C165.168 5.89538 165.749 5.89538 166.325 5.89538C166.33 5.87094 166.335 5.8465 166.346 5.82207C166.221 5.82207 166.092 5.82003 165.967 5.82207C165.765 5.8241 165.562 5.83632 165.36 5.83225C165.178 5.82818 164.991 5.80781 164.774 5.79356C164.831 5.74468 164.867 5.71007 164.898 5.68359C164.524 5.65101 164.161 5.61843 163.793 5.58584C163.798 5.57363 163.798 5.55937 163.803 5.54715C164.192 5.56548 164.587 5.58381 164.976 5.60214C164.976 5.58381 164.976 5.56752 164.976 5.54919C165.116 5.55326 165.256 5.5553 165.391 5.55937C165.391 5.54919 165.396 5.53697 165.396 5.52679C164.457 5.46773 163.518 5.40868 162.433 5.33944C162.895 5.3089 163.248 5.28649 163.596 5.26409C163.596 5.24577 163.601 5.22744 163.601 5.20911C163.398 5.21318 163.201 5.22133 162.999 5.22133C162.739 5.22133 162.47 5.22744 162.215 5.20504C161.987 5.18467 161.779 5.12562 161.577 5.04009C162.096 5.04009 162.61 5.04009 163.129 5.04009C162.496 4.82627 161.774 4.99732 161.115 4.93012C161.115 4.9118 161.115 4.89347 161.115 4.8731C161.447 4.8731 161.785 4.88329 162.117 4.87107C162.729 4.8507 163.341 4.88736 163.959 4.78554C164.395 4.71427 164.95 4.75907 165.448 4.76721C165.832 4.77332 166.216 4.80183 166.616 4.82016C166.45 4.83034 166.289 4.84052 166.133 4.8507C166.143 4.87311 166.149 4.89551 166.159 4.91791C166.512 4.88532 166.875 4.867 167.207 4.81405C167.477 4.76925 167.695 4.65928 167.965 4.62059C168.229 4.58394 168.541 4.60837 168.826 4.59615C169.039 4.58597 169.252 4.54524 169.464 4.54321C169.771 4.53914 170.077 4.5595 170.388 4.56765C170.606 4.57375 170.824 4.57579 171.047 4.57986C171.052 4.56154 171.057 4.54321 171.057 4.52488C170.824 4.51877 170.59 4.51266 170.357 4.50655C170.357 4.49637 170.357 4.48822 170.362 4.47804C170.788 4.46379 171.213 4.44953 171.639 4.43732C171.639 4.42713 171.639 4.41899 171.639 4.40881C169.625 4.40881 167.607 4.40881 165.593 4.40881C165.593 4.39659 165.593 4.38437 165.593 4.37011C166.325 4.3355 167.062 4.28255 167.794 4.2744C168.536 4.26626 169.283 4.31106 170.03 4.31309C171.042 4.31513 172.059 4.32939 173.06 4.28051C173.984 4.23571 174.887 4.1176 175.805 4.0056C174.882 3.99745 173.958 3.99134 173.04 3.97913C172.251 3.96894 171.436 3.99338 170.679 3.92211C169.579 3.81825 168.484 3.84269 167.378 3.82232C166.372 3.80399 165.37 3.75105 164.369 3.74494C163.923 3.7429 163.476 3.82232 163.025 3.8549C162.916 3.86305 162.791 3.83454 162.553 3.8101C162.848 3.77956 163.03 3.76123 163.289 3.73679C162.781 3.56777 162.241 3.60443 161.733 3.55555C162.075 3.55555 162.413 3.55555 162.776 3.55555C162.589 3.52501 162.428 3.49853 162.262 3.47206C162.272 3.45577 162.278 3.43744 162.288 3.42115C162.656 3.43948 163.025 3.45781 163.393 3.4741C163.398 3.46188 163.404 3.4517 163.409 3.43948C163.347 3.42319 163.284 3.4069 163.222 3.38857C163.341 3.31933 163.559 3.35191 164.322 3.55555C164.187 3.57388 164.073 3.59017 163.964 3.60443C163.99 3.61054 164.016 3.61868 164.037 3.62479C164.857 3.62479 165.676 3.62479 166.496 3.62479C166.501 3.60646 166.501 3.58814 166.507 3.57185C165.687 3.50872 164.862 3.44559 164.042 3.38246C164.037 3.37228 164.031 3.36006 164.026 3.34988C165.339 3.32544 166.657 3.301 167.97 3.27453C167.975 3.25417 167.975 3.23584 167.98 3.21547C167.851 3.19104 167.721 3.16456 167.493 3.1218C167.794 3.13198 167.985 3.13809 168.177 3.1442C168.183 3.13605 168.188 3.12994 168.193 3.1218C168.048 3.09533 167.897 3.06682 167.7 3.03016C167.804 2.99351 167.871 2.97111 167.845 2.98129C166.834 2.94667 165.759 2.91002 164.685 2.8754C164.301 2.86318 163.912 2.86114 163.523 2.84689C162.963 2.82652 162.407 2.79801 161.852 2.77358C161.852 2.75728 161.857 2.73896 161.857 2.72267C163.99 2.72267 166.117 2.72267 168.25 2.72267C168.255 2.70841 168.255 2.69212 168.261 2.67787C167.736 2.66157 167.207 2.63103 166.683 2.62899C165.256 2.62492 163.829 2.64528 162.397 2.6351C161.665 2.63103 160.939 2.57808 160.207 2.55975C160.031 2.55568 159.844 2.60659 159.662 2.63103C159.569 2.64325 159.47 2.66565 159.377 2.66157C158.946 2.64121 158.516 2.60455 158.085 2.59234C157.41 2.57197 156.736 2.56179 156.061 2.55364C155.579 2.54753 155.091 2.55161 154.603 2.55161C154.619 2.53939 154.665 2.50681 154.733 2.45997C154.24 2.44368 153.768 2.43553 153.296 2.4111C152.543 2.37444 151.796 2.32964 151.049 2.28076C150.161 2.22171 149.279 2.14025 148.387 2.09953C148.024 2.08323 147.645 2.16062 147.266 2.17894C147.022 2.19116 146.768 2.18505 146.529 2.16469C145.865 2.10563 145.211 2.03232 144.552 1.96512C144.179 2.12804 143.53 1.9529 143.172 2.16469C143.12 2.19524 142.876 2.16876 142.72 2.16876C142.746 2.1036 142.767 2.0364 142.793 1.97734C142.316 2.07509 142.113 1.84498 141.75 1.7961C141.48 1.75945 141.205 1.73094 140.93 1.70446C140.733 1.68614 140.531 1.68206 140.333 1.66984C140.292 1.66781 140.25 1.65763 140.209 1.65763C139.789 1.64948 139.368 1.64337 138.917 1.63523C138.844 1.65355 138.704 1.72483 138.564 1.72483C138.024 1.72279 137.485 1.70039 136.945 1.68003C136.447 1.6617 135.949 1.63726 135.451 1.6169C134.812 1.59246 134.174 1.5721 133.5 1.58635C133.801 1.62504 134.107 1.66577 134.408 1.70446C134.392 1.72483 134.377 1.74315 134.361 1.76352C133.775 1.68206 133.188 1.60061 132.602 1.51915C132.612 1.49471 132.617 1.47028 132.628 1.4438C133.458 1.4438 134.288 1.4438 135.15 1.4438C135.108 1.36846 134.641 1.37457 135.072 1.23813C133.956 1.18315 132.95 1.13427 131.85 1.08132C131.995 1.13223 132.078 1.16278 132.171 1.19536C131.357 1.23813 130.557 1.28089 129.722 1.32569C130.76 1.4438 131.772 1.55988 132.789 1.67595C132.778 1.7065 132.768 1.73705 132.758 1.76555C131.445 1.73705 130.132 1.7065 128.824 1.67799C128.824 1.64948 128.824 1.62301 128.824 1.5945C129.167 1.5945 129.509 1.5945 129.956 1.5945C129.421 1.44584 128.98 1.52322 128.534 1.54562C128.129 1.56599 127.719 1.5721 127.309 1.57413C127.216 1.57413 127.128 1.51508 127.024 1.50693C126.842 1.49268 126.655 1.49675 126.474 1.49471C126.292 1.49268 126.105 1.49471 125.877 1.49471C125.996 1.53137 126.095 1.55988 126.204 1.59246C125.887 1.60672 125.592 1.63115 125.296 1.62912C125.176 1.62912 125.057 1.57413 124.964 1.50693C124.751 1.51915 124.538 1.53137 124.32 1.54359C124.315 1.52322 124.305 1.50286 124.3 1.48453C125.187 1.36235 126.152 1.46417 127.05 1.34198C126.972 1.31958 126.873 1.29311 126.78 1.2646C126.79 1.25238 126.801 1.24016 126.811 1.22795C127.128 1.27071 127.449 1.31347 127.792 1.35827C127.729 1.39086 127.672 1.41937 127.517 1.50082C127.973 1.49064 128.321 1.4825 128.689 1.47639C128.658 1.41326 128.638 1.37864 128.606 1.31958C128.944 1.35013 129.245 1.3766 129.551 1.40308C129.556 1.38271 129.566 1.36438 129.572 1.34402C128.482 1.12002 127.221 1.27478 126.09 1.11594C126.256 1.1526 126.417 1.19129 126.583 1.22795C126.578 1.24016 126.572 1.25035 126.562 1.26256C125.877 1.18722 125.192 1.10983 124.507 1.03449C124.492 1.05078 124.481 1.06503 124.466 1.08132C124.793 1.14242 125.125 1.20351 125.509 1.27478C125.41 1.29922 125.332 1.33384 125.26 1.3318C124.263 1.31551 123.267 1.29718 122.265 1.27478C122.162 1.27275 122.068 1.23202 121.97 1.20962C121.949 1.22387 121.933 1.24016 121.913 1.25442C122.022 1.28293 122.12 1.31755 122.234 1.33791C122.364 1.36235 122.504 1.37253 122.774 1.40715C122.551 1.45806 122.457 1.47842 122.343 1.50286C122.468 1.53951 122.566 1.57006 122.691 1.60875C122.255 1.7737 121.731 1.69021 121.269 1.73297C120.543 1.79814 119.816 1.75741 119.09 1.76555C118.753 1.76963 118.379 1.86127 118.099 1.82257C117.284 1.7065 116.449 1.7961 115.665 1.73297C115.141 1.69021 114.596 1.73501 114.088 1.63726C114.191 1.63726 114.3 1.63726 114.404 1.63726C114.409 1.62708 114.409 1.6169 114.415 1.60671C114.254 1.59653 114.093 1.58635 113.932 1.57617C113.849 1.61486 113.761 1.6841 113.678 1.6841C113.465 1.68206 113.257 1.64337 113.045 1.63115C112.464 1.59653 111.882 1.57006 111.306 1.53748C111.197 1.53137 111.094 1.50897 110.985 1.49471C111.41 1.45195 111.83 1.4438 112.246 1.45398C112.51 1.46009 112.77 1.4886 113.024 1.51508C113.154 1.52933 113.268 1.56192 113.387 1.58635C113.382 1.60672 113.377 1.62912 113.372 1.64948C113.558 1.62504 113.745 1.60061 113.932 1.57413C114.103 1.53748 114.29 1.4601 114.441 1.47231C114.856 1.5049 115.224 1.50693 115.624 1.42751C115.862 1.38068 116.174 1.39697 116.454 1.38678C116.464 1.37049 116.469 1.3542 116.48 1.33791C116.168 1.29718 115.857 1.25646 115.546 1.21573C115.66 1.19333 115.79 1.16889 115.914 1.14445C115.909 1.12816 115.904 1.11187 115.899 1.09558C114.975 1.23405 114.051 1.20962 113.128 1.10983C113.123 1.12816 113.112 1.14445 113.107 1.16278C113.242 1.18111 113.382 1.1974 113.517 1.21573C113.517 1.22591 113.517 1.23609 113.517 1.24627C113.273 1.24016 113.024 1.23609 112.78 1.22184C112.733 1.2198 112.661 1.17907 112.661 1.15667C112.661 1.13427 112.728 1.09761 112.78 1.09151C112.905 1.07929 113.034 1.08132 113.164 1.06707C112.572 1.06707 111.986 1.06707 111.317 1.06707C111.69 1.13834 112.017 1.20147 112.464 1.287C111.218 1.37253 110.082 1.26664 108.831 1.27478C109.174 1.32366 109.392 1.3542 109.61 1.38475C109.604 1.40715 109.599 1.42751 109.594 1.44991C109.361 1.43973 109.122 1.43973 108.904 1.41122C108.795 1.39697 108.727 1.32976 108.639 1.287C108.665 1.26664 108.686 1.24831 108.712 1.22794C107.954 1.19333 107.192 1.15871 106.434 1.12409C106.434 1.09761 106.439 1.07114 106.439 1.04263C107.223 1.00394 108.011 0.965248 108.795 0.928593C108.795 0.922484 108.795 0.916376 108.79 0.910266C107.949 0.910266 107.114 0.910266 106.263 0.910266C106.517 0.881757 106.776 0.853247 107.036 0.824738C107.031 0.812519 107.025 0.802336 107.015 0.790118C106.143 0.834918 105.272 0.881757 104.41 0.926558C104.95 1.00801 105.484 1.08947 106.102 1.18111C105.225 1.23202 104.457 1.27478 103.689 1.31958C103.689 1.33384 103.689 1.34809 103.689 1.36235C103.922 1.36846 104.156 1.37457 104.441 1.38067C104.223 1.51304 104.322 1.55377 104.649 1.57413C105.261 1.61486 105.868 1.68003 106.475 1.73704C106.486 1.71464 106.496 1.69428 106.507 1.67188C105.977 1.62504 105.448 1.58024 104.82 1.52526C105.007 1.49675 105.1 1.48249 105.318 1.44788C104.991 1.42751 104.779 1.41529 104.566 1.40104C104.571 1.39086 104.571 1.37864 104.576 1.36846C105.1 1.36846 105.624 1.36846 106.154 1.36846C106.154 1.38271 106.159 1.39493 106.159 1.40918C106.045 1.42344 105.936 1.43769 105.822 1.44991C106.149 1.49064 106.465 1.61079 106.782 1.43769C106.844 1.40307 107.15 1.43973 107.337 1.46009C107.607 1.4886 107.861 1.55988 108.131 1.56599C109.008 1.58228 109.89 1.5721 110.767 1.58228C110.928 1.58431 111.088 1.62912 111.249 1.65559C111.239 1.67392 111.229 1.69224 111.218 1.71057C110.71 1.71057 110.196 1.71057 109.687 1.71057C109.464 1.71057 109.246 1.71057 109.023 1.71057C108.816 1.71261 108.613 1.71668 108.406 1.71668C108.183 1.71668 108.006 1.69021 107.762 1.77574C107.565 1.84497 107.103 1.77777 106.761 1.77777C106.403 1.77777 106.04 1.78185 105.682 1.7961C105.303 1.81036 104.919 1.90199 104.587 1.74112C104.556 1.72686 104.473 1.72075 104.421 1.72686C103.834 1.78796 103.274 1.77574 102.729 1.63319C102.76 1.65966 102.791 1.68613 102.817 1.71057C102.651 1.72686 102.485 1.74112 102.335 1.75537C102.392 1.65355 102.428 1.58635 102.475 1.49471C102.802 1.52933 103.16 1.56395 103.513 1.60061C103.066 1.40715 102.49 1.40715 101.935 1.37864C101.582 1.36031 101.235 1.33587 100.882 1.32773C100.57 1.31958 100.259 1.33791 99.9477 1.3318C99.6053 1.32366 99.2628 1.30533 98.9255 1.27885C98.3703 1.23609 97.8151 1.18314 97.2495 1.15463C97.8462 1.33791 98.692 1.24831 99.351 1.4886C98.0019 1.49268 96.7669 1.48453 95.4748 1.39493C95.6201 1.30125 95.698 1.25238 95.7862 1.19333C95.9418 1.21776 96.1131 1.24423 96.3206 1.27682C96.1442 1.16074 96.1494 1.1526 95.314 1.07521C94.9508 1.04059 94.5668 1.04467 94.1932 0.987649C94.6654 0.969321 95.1376 0.950993 95.6046 0.93063C94.162 0.818627 92.6936 1.03449 91.2562 0.857319C92.1176 0.763644 93.0153 0.98154 93.8663 0.788082C93.5186 0.802336 93.1657 0.818627 92.8077 0.832882C92.8855 0.779935 92.953 0.735135 93.0205 0.688297L93.0308 0.692371C92.0968 0.708662 91.1628 0.735135 90.2288 0.741244C89.5542 0.745317 88.8797 0.724952 88.2103 0.704588C87.8471 0.69237 87.4838 0.661824 87.131 0.629241C87.0376 0.621095 86.9649 0.574258 86.8352 0.527421C86.8767 0.594622 86.9027 0.64146 86.9338 0.694406C86.6432 0.737171 86.2333 0.749389 86.1399 0.936738C85.6936 0.922483 85.237 0.912302 84.7856 0.889901C84.5054 0.875647 84.1629 0.94692 83.9605 0.792154C83.9398 0.775862 83.7945 0.781972 83.7063 0.786044C83.0525 0.808445 82.4038 0.828809 81.75 0.857318C81.6566 0.861391 81.5684 0.904157 81.4802 0.963212C82.6996 0.72699 83.7945 1.05281 84.962 1.0691C84.2719 1.13427 83.5765 1.19332 82.8605 1.13427C82.5284 1.1078 82.1911 1.09151 81.8538 1.07114C81.6514 1.05892 81.4283 1.0691 81.2519 1.03449C81.0806 0.999867 80.9561 0.920447 80.7901 0.853246C81.0028 0.8227 81.1585 0.800299 81.3141 0.777899C80.9094 0.767717 80.5047 0.755498 80.1051 0.745316C80.5306 0.661823 80.9509 0.596659 81.309 0.781971C81.6255 0.769753 81.942 0.747352 82.2585 0.745316C82.959 0.739207 83.6647 0.743281 84.4275 0.743281C84.3289 0.77179 84.2822 0.784007 84.2355 0.798263C84.2407 0.812517 84.2511 0.824737 84.2563 0.838991C84.6143 0.804373 84.9672 0.759571 85.3304 0.735134C85.6469 0.714771 85.9738 0.718843 86.3007 0.710698C86.2956 0.686261 86.2852 0.661824 86.28 0.637387C84.9724 0.637387 83.6699 0.637387 82.3623 0.637387C82.3571 0.621096 82.3519 0.604804 82.3467 0.586477C82.5595 0.56204 82.7671 0.53964 82.9798 0.515203C82.8812 0.468366 82.793 0.425602 82.627 0.344146C82.6425 0.429675 82.6529 0.468366 82.6633 0.523349C82.0925 0.523349 81.5217 0.523349 80.8575 0.523349C80.9561 0.507057 81.0287 0.494838 81.1377 0.476511C80.7589 0.415419 80.4372 0.364509 80.0999 0.311563C80.4061 0.289163 80.6966 0.268798 80.9924 0.246398C80.9924 0.238253 80.9872 0.232144 80.9872 0.223997C80.5981 0.223997 80.2037 0.223997 79.773 0.223997C79.7419 0.340073 79.7159 0.456147 79.6796 0.596659C79.1192 0.572223 78.5536 0.527421 77.9932 0.527421C77.5002 0.527421 77.0125 0.582405 76.5195 0.606842C76.3275 0.614987 76.1304 0.602769 75.9332 0.598696L75.9436 0.604805C75.4662 0.431711 74.9369 0.509093 74.5218 0.617022C74.2935 0.676079 74.1845 0.674043 73.9717 0.649606C73.8005 0.629242 73.5981 0.649606 73.4165 0.639423C73.2764 0.631278 73.1415 0.604804 73.0066 0.586476C72.7264 0.586476 72.4462 0.586476 72.166 0.586476C72.3372 0.517238 72.5085 0.470402 72.6797 0.474475C72.7887 0.476512 72.8924 0.549822 72.9962 0.59055C73.3906 0.527422 73.7798 0.454111 74.1793 0.401165C74.3454 0.378764 74.5425 0.397091 74.802 0.397091C74.3661 0.238252 73.9302 0.281017 73.5307 0.30749C72.9703 0.346182 72.4254 0.419492 71.8598 0.478547C71.9014 0.498912 71.9688 0.537603 72.0415 0.576295C72.0311 0.592586 72.0155 0.610914 72.0051 0.627206C71.7509 0.614987 71.4966 0.602768 71.1957 0.588513C70.8532 0.682188 70.3706 0.619059 69.9243 0.619059C69.4625 0.619059 69.0007 0.588513 68.5233 0.572221C68.5078 0.543711 68.487 0.502984 68.4766 0.486693C68.6998 0.443928 68.9229 0.401165 69.172 0.352291C68.9281 0.215852 68.4247 0.368581 68.3988 0.17105C68.9125 0.128286 69.3743 0.0895945 69.831 0.050903C69.831 0.0346123 69.831 0.0162846 69.831 -7.01164e-06C69.338 -7.03319e-06 68.845 -7.05473e-06 68.2898 -7.079e-06C68.1497 0.12625 66.1364 0.423563 65.2647 0.39709C65.3321 0.435782 65.3788 0.462256 65.4411 0.492802C64.9481 0.492802 64.4656 0.492802 63.983 0.492802C63.9103 0.492802 63.8169 0.472437 63.7702 0.484656C63.2254 0.639422 62.7169 0.4256 62.2135 0.49891C62.2447 0.405236 62.2654 0.344145 62.2862 0.28509L62.3018 0.291198C61.8451 0.4032 61.1758 0.456146 61.1654 0.37469C61.2588 0.366544 61.3522 0.3584 61.4456 0.35229C61.3885 0.319708 61.3366 0.289161 61.2847 0.258615C60.2677 0.409309 58.6643 0.458183 57.9534 0.393018C58.0312 0.441892 58.0727 0.494838 58.1298 0.49891C58.4412 0.513165 58.7577 0.523348 59.0742 0.519276C59.946 0.507057 60.8177 0.48262 61.6946 0.474474C61.7984 0.472438 61.9022 0.53353 62.006 0.566112C61.9022 0.598694 61.814 0.651641 61.6998 0.661824C60.9111 0.741243 60.1483 0.621096 59.37 0.598695C59.1054 0.59055 58.8355 0.647569 58.5605 0.657751C58.3633 0.66386 58.1558 0.64146 57.9534 0.633313C57.7925 0.627204 57.6317 0.621094 57.4708 0.614985C57.4604 0.631276 57.4553 0.647569 57.4449 0.663859C57.5902 0.684224 57.7406 0.70255 58.0157 0.739205C57.393 0.871572 56.8274 0.763642 56.3137 0.820662C56.3344 0.773825 56.3448 0.747352 56.3552 0.718842C56.5991 0.70866 56.8793 0.696443 57.1543 0.68626C57.1543 0.669969 57.1491 0.655713 57.1491 0.639422C56.8118 0.639422 56.4797 0.639422 56.1425 0.639422C56.1373 0.627204 56.1373 0.614985 56.1321 0.604804C56.267 0.592586 56.4071 0.57833 56.625 0.557966C55.9193 0.456146 55.2551 0.745315 54.6221 0.541675C54.181 0.560002 53.6984 0.582403 53.2107 0.594622C53.1432 0.596658 53.0654 0.535566 52.9409 0.480583C52.4946 0.480583 51.955 0.480583 51.3167 0.480583C51.4879 0.445965 51.5813 0.429672 51.6696 0.411344C51.6592 0.393017 51.6488 0.37469 51.6384 0.356362C50.6681 0.507056 49.6303 0.411344 48.6496 0.57833C49.1425 0.57833 49.6303 0.57833 50.1232 0.57833C47.9802 0.686259 45.8476 0.86139 43.6734 0.779934C43.7564 0.773825 43.8342 0.769752 43.9173 0.763643C44.2338 0.737169 44.5555 0.743278 44.8772 0.718841C45.723 0.65164 46.6051 0.672004 47.4717 0.645531C47.7778 0.637385 48.0788 0.598694 48.3849 0.574258C48.3797 0.557966 48.3694 0.54371 48.3642 0.52742C47.7207 0.54371 47.0773 0.566111 46.4339 0.574257C45.256 0.588512 44.0781 0.596657 42.9002 0.596657C42.3138 0.596657 41.7223 0.54982 41.1411 0.566111C40.6638 0.580365 40.2019 0.66386 39.7297 0.70866C39.4703 0.733097 39.1953 0.75957 38.9306 0.751424C38.09 0.73106 37.2546 0.694404 36.414 0.665895C36.4088 0.684221 36.3984 0.70255 36.3932 0.720878C36.5489 0.733096 36.6994 0.743278 36.8551 0.755496C36.8602 0.769751 36.8602 0.784005 36.8654 0.798261C36.2168 0.830843 35.5682 0.865461 34.9196 0.898044C34.9144 0.889898 34.9092 0.879717 34.904 0.871571C35.0908 0.847135 35.2776 0.820661 35.4644 0.796224C34.7068 0.855279 34.0167 0.657749 33.2539 0.712732C32.4704 0.769751 31.6609 0.775861 30.8618 0.802334C30.8514 0.822698 30.8358 0.841026 30.8255 0.86139C30.9863 0.904155 31.1472 0.946917 31.4014 1.01616C31.0797 1.02226 30.8255 1.02837 30.566 1.03448C30.5608 1.02227 30.5556 1.01005 30.5505 0.997828C30.6075 0.983574 30.6646 0.967282 30.7269 0.953028C30.7061 0.944881 30.6906 0.930626 30.6698 0.92859C30.3792 0.902117 30.0835 0.879716 29.7929 0.855279C29.7202 0.84917 29.6164 0.830843 29.5853 0.843061C29.1339 1.00801 28.7032 0.816587 28.2517 0.832879C27.7951 0.849169 27.3281 0.808443 26.8663 0.794188C26.8611 0.771787 26.8507 0.749387 26.8455 0.729024C27.2295 0.694404 27.6135 0.633312 28.0027 0.627204C29.4141 0.604803 30.8307 0.604802 32.2421 0.586474C32.8959 0.578329 33.5445 0.539639 34.1983 0.525383C34.3955 0.521311 34.5927 0.55593 34.795 0.55593C35.4229 0.55593 36.0508 0.54982 36.6786 0.543711C36.7098 0.543711 36.7409 0.523347 36.7668 0.494837C36.2946 0.543711 35.8795 0.405236 35.3658 0.474473C34.9611 0.52742 34.4733 0.450036 34.0167 0.447999C33.3629 0.44189 32.7039 0.456145 32.0501 0.452073C31.8166 0.450036 31.5779 0.39709 31.3496 0.401163C30.9811 0.407272 30.6179 0.448 30.2547 0.466328C29.0301 0.523347 27.8055 0.602767 26.5757 0.621094C25.4341 0.639422 24.2614 0.64553 23.151 0.551856C22.3156 0.480582 21.6306 0.564074 20.9042 0.66793C20.7952 0.684222 20.7225 0.747351 20.6032 0.802333C20.0272 0.779933 19.3734 0.753459 18.7507 0.729023C19.2229 0.468363 19.9805 0.657748 20.5669 0.521309C19.8404 0.521309 19.114 0.521309 18.2733 0.521309C18.4913 0.553891 18.621 0.574256 18.8649 0.610912C18.621 0.643494 18.4809 0.676076 18.3408 0.678113C17.3445 0.694404 16.3534 0.69644 15.3571 0.720877C13.6967 0.759568 12.0362 0.808442 10.3757 0.859352C9.05255 0.902117 7.72937 0.959135 6.40099 1.0019C6.18305 1.00801 5.95993 0.971353 5.7368 0.953026C5.7368 0.936735 5.74199 0.918407 5.74199 0.902116C6.74347 0.812514 7.73456 0.704586 8.74641 0.641457C9.81534 0.574256 10.8998 0.549818 11.9791 0.507054C11.9739 0.486691 11.974 0.466326 11.9688 0.447998C11.2112 0.474471 10.4588 0.494835 9.70119 0.527418C8.95396 0.56 8.20155 0.596656 7.45435 0.63942C6.68639 0.684221 5.9236 0.737168 5.15564 0.788078C4.39285 0.836952 3.63008 0.885825 2.81023 0.940808C2.79985 0.869534 2.81023 0.808441 2.77391 0.753458C2.73758 0.698475 2.67012 0.621093 2.57153 0.606839C2.46256 0.590547 2.21349 0.619056 2.18236 0.653675C1.89177 0.953025 1.21721 1.10983 0.672364 1.37252C0.931809 1.39085 1.09787 1.39492 1.25354 1.41529C1.42477 1.43769 1.59082 1.47638 1.75168 1.511C1.82951 1.52729 1.89696 1.55173 1.96961 1.57413C1.99555 1.53747 2.00075 1.49674 2.04746 1.46824C2.16679 1.39289 2.27576 1.3094 2.4418 1.25849C2.51964 1.23405 2.71683 1.27885 2.88806 1.2931C2.56116 1.4214 2.30689 1.52322 1.95923 1.65966C2.27057 1.68613 2.44182 1.69224 2.59747 1.71464C2.7791 1.74315 2.95032 1.78591 3.12676 1.82053C3.20459 1.83682 3.28761 1.86126 3.36026 1.85922C3.40176 1.85719 3.46922 1.80221 3.45885 1.77573C3.39139 1.58024 3.74425 1.58227 4.08672 1.49471C3.99332 1.58838 3.94141 1.62911 3.91547 1.67391C3.77536 1.92235 3.79613 1.93253 4.40843 1.94272C4.55371 1.94475 4.69382 1.95901 4.8391 1.96919C4.96883 1.97734 5.09337 1.98752 5.2231 1.99566C5.10895 2.22578 5.1245 2.22985 5.69009 2.24614C5.99106 2.25429 6.28684 2.28076 6.58261 2.33167C6.42694 2.33167 6.26088 2.34185 6.11041 2.32963C5.60707 2.29094 5.20752 2.2604 4.77684 2.48033C4.50702 2.6188 3.81171 2.61066 3.29799 2.65953C3.14751 2.67378 2.98146 2.66157 2.70645 2.66157C3.06448 2.80615 3.35506 2.9263 3.59375 3.02201C3.4796 3.25212 3.40695 3.44558 3.27203 3.63089C3.20978 3.71642 3.01778 3.78362 2.88287 3.85897C2.80504 3.90173 2.67012 3.94246 2.65456 3.98726C2.56116 4.33752 2.62862 4.68168 2.90363 5.01565C2.91919 5.03601 2.98665 5.05026 3.07486 5.08285C2.88286 5.15208 2.70644 5.21725 2.52483 5.28445C2.79465 5.45347 2.46256 5.56955 2.19792 5.69173C2.87767 5.85464 3.30837 6.05625 3.15788 6.41058C3.13194 6.46556 3.40695 6.54295 3.52629 6.59997C3.23053 6.6692 2.94513 6.73437 2.57153 6.82193C2.80502 6.86266 2.91919 6.88302 3.0593 6.90746C2.93475 6.95226 2.81541 6.99299 2.65456 7.05001C2.85173 7.10296 3.01259 7.14776 3.22534 7.20681C3.09561 7.26994 2.97627 7.32696 2.8725 7.37787C2.9659 7.46747 3.22015 7.60798 3.14751 7.65482C2.97108 7.76479 2.63899 7.83199 2.32246 7.92973C2.41068 8.14152 3.04373 8.11097 3.42253 8.24741C3.19421 8.30851 2.98146 8.36349 2.77391 8.41847C2.8206 8.42254 2.86729 8.42662 2.914 8.43069C2.95032 8.50604 3.06448 8.5936 3.0074 8.65266C2.84135 8.82168 2.61824 8.98255 2.38992 9.13936C2.27577 9.21878 2.24463 9.26154 2.41586 9.34503C2.6805 9.47333 2.9659 9.62198 2.60785 9.81137C2.5352 9.85006 2.48851 9.92744 2.53001 9.97021C2.78947 10.239 2.26538 10.4325 2.19792 10.6748C2.27057 10.7115 2.36397 10.7563 2.4885 10.8174C2.28613 10.8296 2.14603 10.8377 2.12009 10.8377C2.22386 10.9171 2.36917 11.0067 2.45219 11.1045C2.57153 11.2409 2.5352 11.4018 2.93475 11.4833C3.02817 11.5016 3.07486 11.6054 3.0593 11.6686C3.03334 11.8091 3.12157 11.9068 3.45885 11.9496C3.55225 11.9618 3.64046 11.9862 3.73387 12.0066C3.7131 12.027 3.68716 12.0494 3.66641 12.0697C3.40176 12.1105 3.13713 12.1532 2.8725 12.194C2.8725 12.2062 2.86729 12.2164 2.86729 12.2286C3.11638 12.2347 3.37582 12.2286 3.61452 12.251C3.77538 12.2652 3.9518 12.31 4.05557 12.363C4.20087 12.4404 4.28389 12.5381 4.39806 12.6257C4.64194 12.811 4.57967 12.8802 4.10228 12.9617C3.98811 12.982 3.87915 13.0065 3.77017 13.0309C3.78055 13.0472 3.78575 13.0615 3.79613 13.0778C4.1438 13.0778 4.48627 13.0778 4.84949 13.0778C5.01035 13.2183 5.20752 13.3669 5.34763 13.5258C5.44621 13.6418 5.38914 13.7498 5.2231 13.876C4.90657 14.1163 5.15044 14.2528 5.87689 14.2833C5.7368 14.3322 5.61226 14.3749 5.49292 14.4157C5.50848 14.4299 5.52405 14.4442 5.53961 14.4564C5.77831 14.4279 6.017 14.3994 6.3024 14.3648C6.42174 14.4483 6.46326 14.601 6.87318 14.6051C6.92508 14.6051 6.96658 14.6886 7.02885 14.7293C7.1015 14.7761 7.16895 14.8433 7.27274 14.8616C7.64114 14.9207 7.71379 15.049 7.7605 15.1875L7.75012 15.1834C8.11336 15.0918 8.11334 15.0918 8.83461 15.2038C8.5596 15.3565 8.51808 15.3606 8.21193 15.2526C8.23788 15.2954 8.24307 15.3463 8.30016 15.385C8.34166 15.4155 8.50252 15.4563 8.51291 15.4522C8.89169 15.2873 9.30164 15.4196 9.70119 15.4217C9.91393 15.4237 10.1267 15.4033 10.3446 15.3952C10.3861 15.4155 10.4276 15.4359 10.4691 15.4583C10.2201 15.5174 9.97101 15.5744 9.72711 15.6334C9.77901 15.664 9.83089 15.6945 9.88278 15.7271C10.4173 15.6681 10.9465 15.5927 11.4914 15.554C11.9584 15.5194 12.4461 15.5214 12.9235 15.5174C13.5721 15.5113 14.226 15.5214 14.8746 15.5153C15.4661 15.5092 16.0577 15.4929 16.6492 15.4726C17.0695 15.4583 17.4898 15.4196 17.9101 15.4176C18.263 15.4155 18.6158 15.4542 18.9687 15.4746L18.9531 15.4685C19.4149 15.4461 19.8819 15.4217 20.3438 15.3993C20.4164 15.3952 20.5305 15.3911 20.5565 15.4074C20.9457 15.6355 21.5268 15.5133 22.1028 15.5581C21.9108 15.6518 21.75 15.7312 21.5891 15.8086C21.5995 15.8208 21.6099 15.835 21.6202 15.8473C22.1495 15.7862 22.6736 15.7088 23.2132 15.6701C23.6543 15.6395 24.1161 15.6518 24.5676 15.6497C25.4912 15.6477 26.4148 15.6579 27.3333 15.6436C28.4593 15.6253 29.5801 15.5886 30.7061 15.5601C30.8358 15.5561 30.9656 15.5662 31.1472 15.5703C31.0538 15.6171 30.9967 15.6457 30.8566 15.7169C31.5312 15.6945 32.1071 15.8004 32.6831 15.6355C32.8907 15.5764 33.202 15.5886 33.4718 15.5418C33.9855 15.4542 34.5823 15.4542 35.1479 15.4196C35.1634 15.4359 35.1842 15.4522 35.1998 15.4665C35.0337 15.5438 34.8729 15.6212 34.7068 15.7006C34.7224 15.7149 34.7431 15.7292 34.7587 15.7434C35.3087 15.6762 35.8536 15.5907 36.4192 15.5479C36.8187 15.5174 37.239 15.5418 37.649 15.5398C38.5985 15.5377 39.5533 15.5499 40.5029 15.5316C41.2605 15.5174 42.0129 15.4502 42.7705 15.44C43.2063 15.4339 43.6474 15.499 44.0885 15.5174C44.6281 15.5398 45.1522 15.5907 45.7022 15.4624C46.0136 15.3911 46.465 15.4257 46.8542 15.4176C47.041 15.4135 47.2278 15.4257 47.4561 15.4298C47.4042 15.385 47.3783 15.3565 47.3419 15.328C47.5755 15.328 47.7934 15.328 48.0736 15.328C47.9491 15.4054 47.8557 15.4665 47.6792 15.5744C48.3175 15.499 48.8364 15.4155 49.376 15.3789C49.8171 15.3483 50.2841 15.3524 50.7355 15.3667C52.0795 15.4094 53.4182 15.4685 54.7622 15.3646C55.032 15.3443 55.3174 15.3667 55.5976 15.3728C55.9453 15.3789 56.2981 15.385 56.6458 15.3952C56.843 15.4013 57.1387 15.328 57.1439 15.5031C57.1439 15.5153 57.2425 15.5357 57.2944 15.5357C57.7614 15.5357 58.2596 15.5744 58.6799 15.5174C59.3907 15.4176 60.0809 15.4868 60.7762 15.4909C61.0201 15.4929 61.2691 15.499 61.513 15.5051C62.4938 15.5235 63.4745 15.5438 64.4552 15.5601C64.7977 15.5662 65.1453 15.5601 65.3892 15.5601C65.0727 15.664 64.6991 15.7882 64.2424 15.9389C65.2335 16.0305 66.043 15.9308 66.9355 15.833C66.4166 15.7638 65.9963 15.7068 65.5449 15.6457C65.9911 15.495 66.4893 15.497 66.9822 15.499C67.0393 15.499 67.1275 15.5031 67.1431 15.5194C67.444 15.774 67.9837 15.6844 68.4611 15.6884C68.5026 15.6884 68.5493 15.6925 68.6738 15.7006C68.4714 15.7964 68.295 15.8798 68.1238 15.9613C68.1342 15.9735 68.1445 15.9878 68.1549 16C68.6998 15.9409 69.2342 15.8676 69.7894 15.8269C70.2305 15.7943 70.6871 15.7984 71.1386 15.7964C72.0311 15.7923 72.9184 15.8106 73.8109 15.7923C74.6723 15.776 75.5284 15.7129 76.395 15.6945C77.3186 15.6742 78.2423 15.6803 79.1659 15.6762C79.7159 15.6742 80.266 15.6762 80.8938 15.6762C80.8938 15.5866 80.8938 15.495 80.8938 15.385C82.3364 15.3626 83.8256 15.3483 85.3148 15.3158C86.28 15.2954 87.2399 15.2343 88.1999 15.218C88.9004 15.2058 89.6061 15.2363 90.3118 15.2506C90.6491 15.2567 90.9864 15.273 91.3237 15.2832C92.8077 15.328 94.2917 15.3748 95.781 15.4155C96.5645 15.4359 97.3481 15.4481 98.1368 15.4603C99.3718 15.4787 100.607 15.4889 101.842 15.5133C103.3 15.5418 104.763 15.5846 106.221 15.6151C107.586 15.6436 108.951 15.6436 110.31 15.6925C111.613 15.7393 112.884 15.6579 114.171 15.6253C114.767 15.611 115.364 15.6233 115.961 15.6172C117.108 15.607 118.254 15.6029 119.401 15.5744C120.335 15.552 121.264 15.495 122.198 15.4644C123.101 15.4339 124.004 15.4257 124.901 15.3911C125.856 15.3545 126.811 15.2934 127.766 15.2547C128.165 15.2384 128.575 15.2628 128.975 15.2587C129.862 15.2526 130.755 15.2526 131.637 15.2262C132.534 15.1977 133.432 15.1386 134.325 15.0958C135.207 15.0531 136.094 14.9961 136.976 14.9777C138.076 14.9533 139.182 14.9655 140.287 14.9574C140.676 14.9533 141.06 14.9309 141.449 14.9207C142.31 14.8983 143.177 14.88 144.038 14.8576C144.531 14.8433 145.024 14.8189 145.522 14.8046C145.782 14.7985 146.047 14.8107 146.306 14.8087C147.1 14.8026 147.899 14.7924 148.693 14.7863C149.051 14.7843 149.414 14.7822 149.772 14.7904C150.27 14.8026 150.732 14.823 151.246 14.7293C151.677 14.6519 152.242 14.7171 152.751 14.713C152.974 14.711 153.192 14.6886 153.415 14.6763C153.415 14.66 153.415 14.6438 153.415 14.6275C152.844 14.601 152.273 14.5725 151.703 14.546C151.708 14.5318 151.713 14.5175 151.713 14.5053C152.398 14.5053 153.078 14.5053 153.846 14.5053C153.752 14.4584 153.711 14.4381 153.648 14.4055C154.686 14.2629 155.734 14.4055 156.803 14.3668C156.741 14.322 156.699 14.2894 156.632 14.2426C157.488 14.2426 158.318 14.2426 159.154 14.2426C159.154 14.2344 159.154 14.2243 159.154 14.2161C158.879 14.1896 158.599 14.1611 158.324 14.1347C158.329 14.1102 158.334 14.0878 158.339 14.0634C159.6 14.043 160.861 14.0227 162.127 14.0043C162.132 13.9962 162.138 13.9901 162.143 13.9819C161.51 13.931 160.871 13.8801 160.238 13.8292C160.244 13.8027 160.249 13.7783 160.259 13.7518C160.404 13.7477 160.576 13.7213 160.69 13.7457C161.079 13.8272 161.447 13.8048 161.863 13.7824C162.584 13.7437 163.315 13.7477 164.078 13.7335C164 13.536 164.192 13.5197 164.613 13.538C165.687 13.5828 166.771 13.5889 167.851 13.6093C167.856 13.5889 167.866 13.5685 167.871 13.5482C167.762 13.538 167.659 13.5237 167.55 13.5176C167.425 13.5115 167.295 13.5115 167.083 13.5074C167.254 13.4525 167.363 13.4199 167.472 13.3853C167.363 13.3649 167.233 13.3425 166.994 13.2977C167.192 13.2834 167.301 13.2753 167.404 13.2671L167.394 13.2712C167.083 13.257 166.771 13.2346 166.46 13.2305C165.822 13.2203 165.183 13.2183 164.545 13.2162C163.923 13.2162 163.3 13.2264 162.677 13.2223C162.428 13.2203 162.179 13.1898 161.93 13.1714C161.935 13.1551 161.94 13.1368 161.94 13.1205C162.833 13.1083 163.731 13.1022 164.623 13.0778C165.484 13.0554 166.392 13.2488 167.332 12.9637C167.062 12.9332 166.896 12.8986 166.725 12.8965C165.448 12.8782 164.172 12.8558 162.895 12.8599C162.065 12.8619 161.24 12.9047 160.41 12.9291C160.353 12.9311 160.295 12.925 160.233 12.8925C160.57 12.8802 160.913 12.8701 161.25 12.8578C161.255 12.8477 161.261 12.8354 161.266 12.8252C161.063 12.811 160.856 12.7804 160.653 12.7845C159.937 12.7967 159.19 12.8843 158.516 12.8212C157.722 12.7458 157.006 12.9169 156.253 12.8558C156.129 12.8456 156.02 12.809 155.843 12.7723C156.305 12.754 156.658 12.7418 157.016 12.7275C157.011 12.7092 157.011 12.6908 157.006 12.6725C156.549 12.6725 156.092 12.6725 155.636 12.6725C155.636 12.6623 155.636 12.6522 155.636 12.642C156.497 12.6236 157.358 12.6033 158.22 12.585C158.22 12.5707 158.22 12.5544 158.22 12.5402C156.424 12.5402 154.634 12.5402 152.839 12.5402C152.834 12.534 152.834 12.5279 152.829 12.5218C153.296 12.4831 153.763 12.4322 154.235 12.4098C155.397 12.3528 156.554 12.2937 157.722 12.2652C158.858 12.2367 159.994 12.253 161.131 12.2388C161.743 12.2306 162.355 12.2001 162.968 12.1777C163.3 12.1655 163.627 12.1471 163.959 12.1023C163.253 12.1023 162.547 12.1023 161.842 12.1023C161.837 12.0962 161.837 12.0901 161.837 12.086C161.971 12.0718 162.106 12.0555 162.241 12.0412C161.8 11.974 161.281 12.1329 160.814 11.9048C162.428 11.8111 163.974 11.7215 165.526 11.634C165.536 11.6462 165.541 11.6564 165.552 11.6686C165.479 11.6543 165.407 11.6421 165.318 11.6258C165.37 11.6075 165.391 11.5932 165.412 11.5932C165.541 11.5912 165.671 11.5912 165.806 11.5912C165.889 11.7297 166.714 11.7358 167.97 11.5892C167.638 11.6014 167.306 11.6116 166.974 11.6238C166.974 11.6116 166.968 11.5993 166.968 11.5851C169.086 11.4812 171.197 11.3753 173.315 11.2715C173.315 11.2531 173.309 11.2328 173.309 11.2145C173.226 11.2104 173.138 11.2063 173.055 11.2063C172.63 11.2063 172.111 11.1432 171.799 11.2246C171.452 11.3163 171.109 11.2857 170.782 11.3183C170.212 11.3774 169.61 11.3753 169.018 11.3957C168.432 11.4161 167.845 11.4385 167.259 11.4425C166.304 11.4486 165.349 11.4364 164.395 11.4405C163.59 11.4425 162.791 11.4548 161.987 11.4629C161.868 11.4649 161.754 11.469 161.613 11.4731C162.023 11.3611 162.023 11.3733 162.532 11.3916C162.745 11.3998 162.963 11.3366 163.186 11.3285C163.611 11.3102 164.037 11.3102 164.462 11.2939C164.633 11.2878 164.815 11.3041 164.945 11.1982C165.017 11.1371 165.355 11.133 165.573 11.1045C165.583 11.1208 165.599 11.1391 165.609 11.1554C165.448 11.1859 165.287 11.2145 165.126 11.245C165.132 11.2572 165.132 11.2674 165.137 11.2796C165.547 11.2796 165.951 11.2837 166.361 11.2796C166.963 11.2735 167.565 11.2654 168.167 11.2531C168.53 11.247 168.945 11.2735 169.252 11.2104C169.973 11.0658 170.689 11.1921 171.4 11.1656C172.215 11.1371 173.034 11.1167 173.854 11.0984C174.321 11.0882 174.783 11.0862 175.25 11.0801C175.535 11.076 175.821 11.0801 176.101 11.0678C176.329 11.0577 176.552 11.0699 176.77 10.9721C176.926 10.9009 177.326 10.9273 177.621 10.911C178.016 10.8907 178.41 10.8723 178.799 10.8153C174.954 11.0332 171.088 11.0169 167.228 11.023C167.223 11.0047 167.223 10.9843 167.218 10.966C167.835 10.9395 168.458 10.9131 169.075 10.8866C169.086 10.8764 169.096 10.8662 169.106 10.854C168.779 10.795 168.458 10.7379 168.131 10.6789C168.136 10.6646 168.136 10.6524 168.141 10.6382C168.769 10.6382 169.397 10.6382 170.123 10.6382C169.838 10.573 169.636 10.5262 169.428 10.4793C168.603 10.5771 167.799 10.6056 167.072 10.3816C167.077 10.3592 167.088 10.3368 167.093 10.3144C167.871 10.3694 168.644 10.4264 169.423 10.4814C169.49 10.4814 169.563 10.4814 169.739 10.4814C169.589 10.4325 169.516 10.408 169.444 10.3856C169.454 10.3714 169.464 10.3551 169.475 10.3408C169.828 10.3775 170.18 10.4162 170.533 10.4528C170.538 10.4304 170.549 10.406 170.554 10.3836C169.911 10.351 169.262 10.3205 168.587 10.2859C168.712 10.2655 168.826 10.2492 168.94 10.2309C168.894 10.2044 168.857 10.184 168.862 10.1861C169.495 10.1433 170.123 10.0985 170.751 10.0557C170.756 10.0659 170.762 10.0761 170.767 10.0883C170.637 10.1046 170.507 10.1229 170.383 10.1392C171.618 10.1922 172.837 10.2349 174.129 10.1026C173.636 10.0537 173.257 10.015 172.874 9.97633C172.889 9.94985 172.905 9.92338 172.915 9.89691C173.382 9.88265 173.839 9.88876 174.228 10.0293C174.451 10.1087 174.55 10.1067 174.876 10.0252C174.944 10.0069 175.068 10.0272 175.167 10.0293C175.307 10.0333 175.447 10.0395 175.587 10.0435C175.593 10.0211 175.603 9.99873 175.608 9.97429C174.876 9.91931 174.14 9.86636 173.408 9.81138C173.408 9.79916 173.413 9.78694 173.413 9.77472C173.808 9.78898 174.207 9.8297 174.591 9.80934C174.991 9.78898 175.375 9.71159 175.748 9.61792C174.591 9.59756 173.449 9.76047 172.308 9.59145C173.356 9.54257 174.409 9.49166 175.406 9.44483C175.743 9.41021 176.039 9.3817 176.335 9.35115C176.335 9.343 176.335 9.33486 176.335 9.32671C175.224 9.35115 174.119 9.37559 173.008 9.39799C173.003 9.36744 172.998 9.3369 172.993 9.30431C175.795 9.21064 178.602 9.11493 181.415 9.01922C180.963 8.92758 180.512 8.90925 179.993 8.94794C179.583 8.97849 179.137 8.93572 178.638 8.92351C178.773 8.895 178.851 8.87871 178.96 8.8563C178.83 8.82983 178.721 8.80947 178.576 8.78096C179.152 8.75041 179.687 8.7219 180.226 8.69543C180.226 8.68525 180.226 8.67507 180.221 8.66488C179.873 8.66488 179.526 8.66488 179.178 8.66488C179.178 8.64452 179.178 8.62416 179.178 8.60583C179.951 8.60583 180.73 8.60786 181.503 8.60583C181.933 8.60379 182.369 8.5875 182.8 8.59157C183.07 8.59361 183.345 8.64045 183.615 8.63637C184.201 8.62619 184.782 8.59361 185.369 8.57121L185.358 8.57528C185.13 8.55695 184.907 8.54066 184.678 8.52234C184.601 8.51623 184.518 8.51012 184.45 8.46124C185.166 8.44088 185.882 8.41848 186.598 8.39812C186.598 8.37775 186.604 8.35739 186.604 8.33702C184.601 8.21484 182.577 8.20466 180.543 8.2128C180.693 8.22502 180.844 8.23928 180.999 8.25149C181.005 8.26168 181.005 8.27186 181.01 8.28C180.896 8.28408 180.787 8.28815 180.673 8.29019C179.91 8.3024 179.147 8.31055 178.384 8.32888C178.088 8.33702 177.798 8.37571 177.502 8.38182C177.191 8.38997 177.113 8.31055 177.232 8.15578C176.843 8.19855 176.501 8.2352 176.236 8.26371C176.459 8.28408 176.75 8.30851 177.04 8.33499C177.035 8.35535 177.03 8.37571 177.025 8.39608C175.556 8.42255 174.088 8.44902 172.624 8.4755C172.619 8.46328 172.619 8.45106 172.614 8.43884C173.346 8.4083 174.077 8.37571 174.809 8.34517C174.809 8.3248 174.809 8.30444 174.809 8.28408C173.657 8.26982 172.505 8.25557 171.358 8.24131C171.364 8.23317 171.364 8.22298 171.369 8.21484C172.137 8.17411 172.905 8.12116 173.673 8.09469C174.067 8.08044 174.472 8.12116 174.866 8.11098C175.582 8.09062 176.298 8.03767 177.019 8.02342C177.756 8.00916 178.498 8.02545 179.24 8.02953C179.495 8.02953 179.749 8.02953 180.143 8.02953C179.956 7.97658 179.889 7.95825 179.816 7.93789C179.816 7.92363 179.816 7.90938 179.816 7.89512C180.787 7.89512 181.752 7.89512 182.722 7.89512C182.722 7.86865 182.722 7.84218 182.727 7.81774C181.487 7.77498 180.247 7.73221 178.919 7.68537C179.272 7.64668 179.526 7.60392 179.79 7.5917C180.102 7.57745 180.398 7.58763 180.73 7.62836C181.165 7.6813 181.69 7.61817 182.172 7.59374C182.483 7.57948 182.795 7.53061 183.106 7.52654C183.656 7.52043 184.206 7.53061 184.756 7.54486C185.068 7.55301 185.374 7.57745 185.695 7.55708C185.607 7.54486 185.514 7.53061 185.426 7.51839C185.426 7.50617 185.426 7.49599 185.42 7.48377C185.747 7.46341 186.079 7.44304 186.406 7.42268C186.412 7.40639 186.412 7.3901 186.417 7.37381C185.488 7.33308 184.564 7.28217 183.635 7.25773C183.179 7.24551 182.712 7.30253 182.25 7.30457C181.352 7.3066 180.455 7.29031 179.557 7.2842C179.443 7.2842 179.329 7.31475 179.22 7.31271C179.08 7.31271 178.945 7.29439 178.877 7.28828C178.509 7.31271 178.166 7.3677 177.86 7.3453C177.217 7.29846 176.646 7.42268 176.034 7.44101C175.831 7.44712 175.582 7.48784 175.432 7.45322C174.69 7.28217 173.875 7.33919 173.091 7.30457C172.479 7.27809 171.851 7.29642 171.234 7.28828C170.912 7.2842 170.596 7.26384 170.274 7.25162C170.077 7.26588 169.885 7.29031 169.687 7.29235C169.298 7.29642 168.909 7.2842 168.525 7.28828C167.368 7.29846 166.216 7.31679 165.059 7.31882C164.613 7.31882 164.151 7.30864 163.746 7.13962C164.104 7.14777 164.405 7.15184 164.763 7.15998C164.665 7.105 164.623 7.07853 164.493 7.00318C165.313 7.07445 166.003 7.13351 166.751 7.19867C166.74 7.20275 166.813 7.15591 166.896 7.15387C167.243 7.13962 167.596 7.12333 167.944 7.13758C168.738 7.15591 169.516 7.20478 170.3 7.24551ZM99.4807 1.73704C99.5741 1.78795 99.6623 1.8409 99.7869 1.91014C99.3562 1.8857 98.9774 1.8633 98.5467 1.83886C98.9099 1.80017 99.1953 1.76963 99.4807 1.73704C99.5326 1.73297 99.5793 1.72686 99.7246 1.71057C99.3977 1.68003 99.1642 1.65762 98.9307 1.63522C99.185 1.60875 99.4496 1.62708 99.6675 1.59042C100.052 1.52322 100.269 1.63522 100.544 1.69632C100.648 1.72075 100.762 1.74112 100.866 1.76352C100.783 1.71261 100.705 1.6617 100.617 1.60875C100.648 1.59653 100.685 1.58635 100.716 1.57413C101.084 1.44177 101.333 1.46417 101.639 1.62708C101.748 1.68613 101.945 1.71668 102.091 1.75945C101.702 1.75945 101.281 1.75945 100.856 1.75945C100.783 1.87959 100.451 1.94272 100.264 1.84294C100.02 1.71261 99.735 1.76759 99.4807 1.73704ZM161.276 5.85872C160.96 6.03793 160.607 5.88723 160.254 5.86687C160.285 5.90556 160.301 5.93 160.321 5.95443C160.254 5.9524 160.181 5.95443 160.124 5.94425C159.979 5.91778 159.839 5.8628 159.694 5.8628C159.133 5.85872 158.573 5.87298 158.012 5.87501C157.934 5.87501 157.857 5.85261 157.779 5.84039C158.246 5.8017 158.728 5.83429 159.133 5.77523C159.719 5.6897 160.249 5.79763 160.809 5.78948C160.98 5.78745 161.157 5.83021 161.328 5.85261C161.774 5.86279 162.221 5.87298 162.667 5.88112C162.667 5.89741 162.662 5.9137 162.662 5.93C162.267 5.93 161.878 5.93407 161.484 5.92592C161.416 5.92389 161.344 5.88112 161.276 5.85872ZM66.0741 0.88379C65.9081 0.900081 65.7369 0.912301 65.5812 0.938774C65.5085 0.950992 65.467 0.993757 65.3529 1.04874C64.9222 1.02838 64.3929 1.0019 63.8585 0.977466C63.8636 0.965248 63.8636 0.950992 63.8688 0.938774C64.232 0.938774 64.5953 0.938774 65.0727 0.938774C64.8962 0.912301 64.8288 0.902118 64.7354 0.885827C65.2076 0.767716 65.6383 0.849171 66.0741 0.88379C66.3232 0.843062 66.5671 0.800298 66.8732 0.747352C65.4826 0.747352 64.175 0.747352 62.8674 0.747352C62.8674 0.729024 62.8674 0.710697 62.8674 0.690333C64.5486 0.690333 66.2298 0.690333 67.911 0.690333C67.911 0.702551 67.9162 0.71477 67.9162 0.726988C67.5997 0.73717 67.278 0.749389 66.9615 0.759572C66.9615 0.773826 66.9615 0.78808 66.9615 0.80437C67.1327 0.816589 67.3039 0.828807 67.4803 0.841026C67.4752 0.855281 67.4752 0.869536 67.47 0.883791C67.003 0.883791 66.536 0.88379 66.0741 0.88379ZM47.4613 0.898044C47.4509 0.87768 47.4457 0.857318 47.4354 0.836953C47.5703 0.822698 47.7052 0.798261 47.8453 0.792152C48.7118 0.751424 49.5836 0.710697 50.4502 0.678115C50.886 0.661823 51.3219 0.655714 51.7578 0.661823C52.614 0.674042 53.4701 0.700514 54.3211 0.718841C54.5858 0.724951 54.8452 0.718842 55.1098 0.718842C54.648 0.749388 54.1914 0.767716 53.7348 0.794189C53.4338 0.81048 53.0498 0.798262 52.8526 0.871571C52.614 0.961174 52.4168 0.936737 52.1833 0.936737C51.9965 0.936737 51.8097 0.932665 51.6177 0.932665C51.0728 0.932665 50.528 0.942846 49.9883 0.932665C49.8742 0.930628 49.7704 0.861391 49.6355 0.810481C48.9972 1.01208 48.2137 0.853244 47.4613 0.898044ZM140.811 2.05472C140.79 2.06287 140.878 2.00382 140.935 2.00992C141.325 2.04251 141.781 2.04862 142.077 2.14229C142.549 2.29095 142.975 2.32557 143.405 2.22375C143.597 2.28076 143.748 2.32557 143.94 2.38258C143.987 2.30927 144.012 2.26447 144.023 2.25226C145.113 2.25226 146.166 2.25226 147.256 2.25226C147.629 2.38462 148.153 2.38258 148.662 2.39684C148.802 2.40091 148.942 2.39684 149.082 2.39684C149.082 2.41313 149.082 2.42739 149.082 2.44368C148.895 2.45386 148.714 2.47626 148.527 2.47219C147.811 2.45793 147.1 2.43146 146.389 2.42128C145.559 2.40906 144.729 2.42128 143.903 2.40295C143.073 2.38259 142.248 2.33778 141.418 2.29909C141.34 2.29502 141.247 2.28076 141.195 2.25836C141.081 2.20542 140.982 2.14636 140.811 2.05472ZM41.1308 1.02226C39.1122 1.02226 37.1353 1.02226 35.1583 1.02226C35.1583 0.993754 35.1531 0.965245 35.1531 0.936736C36.0767 0.914335 36.9951 0.881753 37.9188 0.871571C38.5726 0.863425 39.2264 0.904153 39.875 0.885826C40.3213 0.875644 40.7416 0.845098 41.1308 1.02226ZM10.7027 0.989681C10.6975 0.971354 10.6923 0.950991 10.6923 0.932663C11.3253 0.898044 11.9532 0.84917 12.5914 0.834915C13.1207 0.822697 13.6604 0.857316 14.1948 0.859352C14.6151 0.859352 15.0302 0.841024 15.3312 0.832878C15.4973 0.910261 15.5958 0.955063 15.6737 0.989681C15.0095 1.10168 14.3142 0.924517 13.5877 1.06096C13.1259 1.14648 12.4876 1.05892 11.9272 1.05077C11.9272 1.02837 11.9221 1.00597 11.9221 0.981536C12.2438 0.963208 12.5655 0.942844 12.9183 0.92248C12.1296 0.81455 11.4447 1.08539 10.7027 0.989681ZM163.471 7.06631C163.45 7.08667 163.43 7.10704 163.409 7.1274C163.212 7.07853 163.02 7.00318 162.807 6.98892C162.568 6.97263 162.314 7.0154 162.049 7.03169C161.982 6.993 161.899 6.94209 161.811 6.89118C161.805 6.90951 161.8 6.92987 161.795 6.9482C161.515 6.97467 161.235 7.01132 160.949 7.02354C160.747 7.03373 160.456 6.97263 160.337 7.01336C159.958 7.13962 159.683 7.02558 159.367 6.9706C159.564 6.96042 159.766 6.95023 160.062 6.93598C159.901 6.9034 159.839 6.89118 159.657 6.85452C160.612 6.85452 161.432 6.85452 162.257 6.85452C162.387 6.85452 162.527 6.85656 162.651 6.8423C162.978 6.80565 163.243 6.83009 163.445 6.9706C163.373 6.98689 163.3 7.00114 163.212 7.01947C163.305 7.03576 163.388 7.05002 163.471 7.06631ZM49.1892 1.71464C49.4383 1.68817 49.6407 1.65151 49.8482 1.64744C50.5539 1.63726 51.2545 1.46824 51.9757 1.62708C52.0276 1.63929 52.1729 1.63115 52.1781 1.62097C52.2611 1.49064 52.5102 1.55173 52.6762 1.54766C52.9979 1.53951 53.3248 1.54155 53.6414 1.55987C53.8126 1.57006 53.9735 1.623 54.1395 1.65559C54.1187 1.67595 54.098 1.69428 54.0824 1.71464C52.4687 1.71464 50.8549 1.71464 49.1892 1.71464ZM15.7463 0.869534C16.9917 0.869534 18.2578 0.869534 19.5187 0.869534C19.5187 0.896007 19.5239 0.924517 19.5239 0.95099C19.3578 0.959135 19.197 0.969318 19.0309 0.97339C18.8182 0.979499 18.6055 0.977464 18.3927 0.983573C18.1592 0.991719 17.9257 1.01005 17.687 1.01615C17.3393 1.02634 16.9865 1.03245 16.6388 1.03448C16.2756 1.03652 15.9331 0.999863 15.7463 0.869534ZM90.9604 1.42547C90.9604 1.43769 90.9604 1.45195 90.9604 1.46417C90.8307 1.48453 90.675 1.49268 90.5816 1.52933C90.4208 1.5945 90.4415 1.6006 90.317 1.53137C90.2755 1.50897 90.1665 1.48249 90.1302 1.49064C89.492 1.64133 88.8589 1.48249 88.2414 1.46417C87.8574 1.45195 87.4371 1.399 87.022 1.38475C86.8663 1.37864 86.7159 1.36235 86.5602 1.35013C86.5654 1.33791 86.5706 1.32569 86.5758 1.31551C87.4164 1.31551 88.2518 1.31551 89.0976 1.31551C89.0872 1.33587 89.0717 1.37864 89.0561 1.42344C89.7151 1.42547 90.3378 1.42547 90.9604 1.42547ZM42.07 1.74315C42.0803 1.76555 42.0907 1.78591 42.0959 1.80832C40.9336 1.90606 39.7505 1.91828 38.5467 1.87959C38.8632 1.81443 39.1901 1.76962 39.5222 1.735C39.6104 1.72686 39.7557 1.73501 39.8076 1.75944C40.0255 1.86737 40.2071 1.83682 40.4095 1.75741C40.4666 1.735 40.5548 1.7126 40.6274 1.71464C41.11 1.72075 41.5874 1.73297 42.07 1.74315ZM13.567 1.93661C13.5721 1.94068 13.5722 1.94475 13.5773 1.95086C12.2075 2.02417 10.8428 2.09545 9.47287 2.16876C9.56627 2.09341 9.70119 2.03843 9.84647 2.03028C10.4951 1.99159 11.1489 1.95697 11.8027 1.94068C12.3839 1.92643 12.9754 1.93661 13.567 1.93661ZM160.311 6.53481C160.316 6.51852 160.321 6.50426 160.327 6.48797C160.57 6.47779 160.83 6.44317 161.063 6.4615C161.359 6.4839 161.676 6.46353 161.946 6.57757C162.101 6.64274 162.464 6.64477 162.729 6.63663C163.056 6.62848 163.123 6.62645 163.305 6.78936C162.381 6.7303 161.504 6.67532 160.633 6.62034C160.633 6.61219 160.633 6.60608 160.638 6.59794C160.928 6.59794 161.219 6.59794 161.51 6.59794C161.51 6.58979 161.51 6.57961 161.515 6.57146C161.11 6.55924 160.711 6.54703 160.311 6.53481ZM11.4187 1.87348C11.4135 1.85719 11.4032 1.8409 11.398 1.82461C12.2126 1.78184 13.0221 1.73908 13.8575 1.69428C13.8108 1.92235 14.2571 1.80424 14.5114 1.87348C13.4424 1.87348 12.4306 1.87348 11.4187 1.87348ZM69.063 0.928591C69.0786 0.942846 69.0941 0.959138 69.1149 0.973392C68.8554 0.987648 68.596 1.0019 68.3625 1.01412C68.6012 0.704589 69.2498 0.779935 69.7375 0.763644C70.272 0.745316 70.8843 0.645532 71.3669 0.865464C71.2268 0.879719 71.0763 0.885828 70.9518 0.865464C70.3862 0.763644 69.8154 0.836955 69.2446 0.8451C69.1771 0.847136 69.1201 0.900082 69.063 0.928591ZM19.4928 1.12408C18.5639 1.2035 17.6299 1.32976 16.7582 1.1363C17.6299 1.14038 18.5587 1.01412 19.4928 1.12408ZM160.264 6.54703C160.28 6.56128 160.295 6.57554 160.306 6.59183C160.249 6.61219 160.197 6.63052 160.129 6.65496C160.212 6.66514 160.29 6.67532 160.306 6.67736C160.259 6.71605 160.207 6.75678 160.145 6.80769C159.626 6.74659 159.04 6.67939 158.433 6.60812C159.035 6.44113 159.673 6.65699 160.264 6.54703ZM58.2128 1.11594C58.2128 1.09965 58.2077 1.08132 58.2077 1.06503C58.436 1.06503 58.6695 1.0691 58.8978 1.06503C59.3804 1.05281 59.8785 1.05485 60.3455 1.01412C60.6776 0.985611 60.7295 0.971357 60.8281 1.1302C59.9563 1.14445 59.0794 1.1974 58.2128 1.11594ZM78.7404 1.05281C78.2059 1.03448 77.7753 1.02023 77.355 1.00598C77.355 0.971357 77.355 0.936738 77.355 0.904156C77.63 0.920447 77.8739 0.932666 78.2475 0.955066C78.0762 0.910265 78.0192 0.893973 77.9309 0.871573C78.6937 0.853246 79.4098 0.836953 80.1259 0.818627C80.1259 0.830845 80.1311 0.8451 80.1311 0.857318C79.5862 0.89601 79.0414 0.932665 78.4446 0.97543C78.5484 1.00394 78.6003 1.01616 78.7404 1.05281ZM32.0293 0.977465C32.0241 0.957101 32.0189 0.936735 32.0137 0.914335C32.818 0.889898 33.6275 0.863426 34.4318 0.838989C34.437 0.859353 34.4422 0.87768 34.4474 0.898044C33.669 1.04059 32.8336 0.938773 32.0293 0.977465ZM92.9063 1.25849C93.4667 1.17907 93.996 1.06096 94.5616 1.22794C94.4578 1.35216 94.1776 1.36031 93.9233 1.34809C93.5912 1.33384 93.2643 1.29311 92.9063 1.25849ZM161.645 3.75105C161.53 3.8997 160.067 3.8936 159.304 3.75105C160.093 3.75105 160.851 3.75105 161.645 3.75105ZM90.9137 1.31551C91.5105 1.27885 92.128 1.23609 92.7195 1.36031C92.102 1.39697 91.4741 1.54155 90.9137 1.31551ZM164.182 4.22146C163.658 4.33142 163.274 4.2072 162.88 4.08094C163.077 4.0728 163.269 4.09927 163.461 4.10742C163.544 4.10945 163.627 4.06873 163.72 4.05651C163.85 4.03818 163.99 4.02596 164.125 4.01578C164.151 4.01374 164.187 4.03614 164.244 4.05447C164.156 4.08909 164.078 4.11964 163.995 4.15018C164.073 4.17869 164.13 4.20109 164.182 4.22146ZM53.7607 1.16889C53.74 1.14852 53.7244 1.12612 53.7036 1.10576C53.2055 1.05485 52.671 1.11798 52.1729 1.05892C52.8474 1.03245 53.5168 1.00597 54.1914 0.979501C54.2122 0.999865 54.2329 1.02227 54.2537 1.04263C54.0928 1.08539 53.9268 1.12816 53.7607 1.16889ZM45.173 1.07114C45.173 1.06299 45.173 1.05281 45.1678 1.04466C45.4687 1.03448 45.7697 1.01819 46.0707 1.01208C46.3716 1.00597 46.6778 1.01005 46.9787 1.01005C46.958 1.01412 46.8853 1.0243 46.7712 1.04263C46.9476 1.08539 47.0462 1.10983 47.2226 1.15259C46.4702 1.12409 45.8216 1.09761 45.173 1.07114ZM55.6339 1.57617C55.0891 1.70242 54.565 1.68613 54.399 1.57617C54.8141 1.57617 55.224 1.57617 55.6339 1.57617ZM176.879 8.75856C177.772 8.65266 178.301 8.66692 178.446 8.81761C177.917 8.79929 177.403 8.77892 176.879 8.75856ZM157.239 7.08871C157.234 7.11722 157.229 7.14573 157.224 7.1722C156.622 7.13758 156.02 7.10296 155.418 7.06834C155.641 7.03576 155.864 7.02965 156.082 7.0378C156.3 7.04594 156.513 7.06834 156.725 7.07853C156.897 7.08871 157.068 7.08667 157.239 7.08871ZM23.3793 1.2646C23.3741 1.28496 23.3741 1.30329 23.3689 1.32365C22.9019 1.41325 22.5179 1.287 22.0924 1.25238C22.1028 1.22998 22.108 1.20758 22.1184 1.18314C22.5439 1.20961 22.959 1.23609 23.3793 1.2646ZM122.893 1.60061C123.334 1.60061 123.775 1.60061 124.341 1.60061C123.827 1.71668 123.827 1.71668 122.893 1.60061ZM38.557 1.19739C39.1071 1.06707 39.3613 1.07928 39.7194 1.25441C39.325 1.23405 38.967 1.21776 38.557 1.19739ZM161.619 5.60417C162.008 5.60417 162.361 5.60417 162.729 5.60417C162.605 5.7569 162.169 5.7569 161.619 5.60417ZM19.6173 0.942844C20.1258 0.926553 20.5098 0.914335 20.9509 0.90008C20.5409 1.1139 20.1414 1.02023 19.6173 0.942844ZM160.664 12.0759C160.664 12.0881 160.664 12.1003 160.664 12.1105C160.29 12.1105 159.911 12.1105 159.533 12.1105C159.548 12.0962 159.574 12.0636 159.595 12.0392C159.958 12.0514 160.311 12.0636 160.664 12.0759ZM57.1232 0.91841C57.1335 0.934701 57.1439 0.950992 57.1543 0.967283C56.6146 0.997829 56.0802 1.02837 55.5405 1.06096C55.5353 1.04874 55.5353 1.03652 55.5302 1.0243C56.0594 0.989683 56.5887 0.955065 57.1232 0.91841ZM162.963 4.23164C162.444 4.23164 161.971 4.23164 161.401 4.23164C161.971 4.17055 162.444 4.12371 162.963 4.23164ZM55.416 1.80628C55.0424 1.8633 54.7674 1.9081 54.482 1.94272C54.4457 1.94679 54.3678 1.89384 54.3056 1.86737C54.3678 1.84701 54.4249 1.81035 54.4924 1.80832C54.7518 1.80221 55.0112 1.80628 55.416 1.80628ZM140.173 1.91218C140.157 1.9244 140.147 1.93865 140.131 1.95087C139.82 1.92236 139.508 1.89385 139.249 1.87145C139.301 1.82461 139.342 1.78592 139.405 1.73297C139.638 1.78592 139.908 1.84905 140.173 1.91218Z" fill="url(#paint0_linear_6398_353)"/>
<defs>
<linearGradient id="paint0_linear_6398_353" x1="182.971" y1="16.0021" x2="47.8639" y2="-70.5941" gradientUnits="userSpaceOnUse">
<stop stop-color="#533CA3"/>
<stop offset="0.294518" stop-color="#BF5AB8"/>
<stop offset="0.682384" stop-color="#ED641F"/>
<stop offset="1" stop-color="#FFE322"/>
</linearGradient>
</defs>
</svg>
